*
*
G04 PADS VX.2.3 Build Number: 9191294 generated Gerber (RS-274-X) file*
G04 PC Version=2.1*
*
%IN "STM32F072.pcb"*%
*
%MOIN*%
*
%FSLAX35Y35*%
*
*
*
*
G04 PC Standard Apertures*
*
*
G04 Thermal Relief Aperture macro.*
%AMTER*
1,1,$1,0,0*
1,0,$1-$2,0,0*
21,0,$3,$4,0,0,45*
21,0,$3,$4,0,0,135*
%
*
*
G04 Annular Aperture macro.*
%AMANN*
1,1,$1,0,0*
1,0,$2,0,0*
%
*
*
G04 Odd Aperture macro.*
%AMODD*
1,1,$1,0,0*
1,0,$1-0.005,0,0*
%
*
*
G04 PC Custom Aperture Macros*
*
*
*
*
*
*
G04 PC Aperture Table*
*
%ADD010C,0.001*%
%ADD041C,0.01*%
%ADD042C,0.1*%
*
*
*
*
G04 PC Circuitry*
G04 Layer Name STM32F072.pcb - circuitry*
%LPD*%
*
*
G04 PC Custom Flashes*
G04 Layer Name STM32F072.pcb - flashes*
%LPD*%
*
*
G04 PC Circuitry*
G04 Layer Name STM32F072.pcb - circuitry*
%LPD*%
*
G54D10*
G54D41*
G01X105192Y270777D02*
X113192D01*
X109192Y266777D02*
Y274777D01*
X112101Y276058D02*
X111192Y272777D01*
X112101Y276058D02*
X113010Y272777D01*
X111533Y273871D02*
X112669D01*
X111097Y270777D02*
X119097D01*
X115097Y266777D02*
Y274777D01*
X118006Y276058D02*
X117097Y272777D01*
X118006Y276058D02*
X118915Y272777D01*
X117438Y273871D02*
X118574D01*
X109192Y271761D02*
G75*
G03Y269793I-0J-984D01*
G01X115097*
G03Y271761I0J984*
G01X109192*
X105192Y299517D02*
X113192D01*
X109192Y295517D02*
Y303517D01*
X112101Y304798D02*
X111192Y301517D01*
X112101Y304798D02*
X113010Y301517D01*
X111533Y302611D02*
X112669D01*
X111097Y299517D02*
X119097D01*
X115097Y295517D02*
Y303517D01*
X118006Y304798D02*
X117097Y301517D01*
X118006Y304798D02*
X118915Y301517D01*
X117438Y302611D02*
X118574D01*
X109192Y300501D02*
G03Y298533I-0J-984D01*
G01X115097*
G03Y300501I0J984*
G01X109192*
X304933Y181193D02*
X312933D01*
X304933Y189193*
X312933*
X304933Y181193*
Y178437D02*
X312933D01*
X304933Y186437*
X312933*
X304933Y178437*
X310311Y185193D02*
G03X307555I-1378J-0D01*
G01Y182437*
G03X310311I1378J0*
G01Y185193*
X327177Y123909D02*
X335177D01*
X327177Y131909*
X335177*
X327177Y123909*
X329933D02*
X337933D01*
X329933Y131909*
X337933*
X329933Y123909*
X331177Y129287D02*
G03Y126531I0J-1378D01*
G01X333933*
G03Y129287I0J1378*
G01X331177*
X114194Y180197D02*
X122194D01*
Y188197*
X114194*
Y180197*
X118194Y184197D02*
Y188197D01*
X114194Y170354D02*
X122194D01*
Y178354*
X114194*
Y170354*
X118194Y174354D02*
Y178354D01*
X114194Y160512D02*
X122194D01*
Y168512*
X114194*
Y160512*
X118194Y164512D02*
Y168512D01*
X114194Y190039D02*
X122194D01*
Y198039*
X114194*
Y190039*
X118194Y194039D02*
Y198039D01*
X352177Y131783D02*
X360177Y139783D01*
Y131783*
X352177Y139783*
Y131783*
X304933D02*
X312933Y139783D01*
Y131783*
X304933Y139783*
Y131783*
X347298Y108799D02*
X351298Y112799D01*
X347298Y116799*
X343298Y112799*
X347298Y108799*
Y112799D02*
Y116799D01*
X337298Y108799D02*
X341298Y112799D01*
X337298Y116799*
X333298Y112799*
X337298Y108799*
Y112799D02*
Y116799D01*
X351539Y280555D02*
X359539D01*
X355539Y276555D02*
Y284555D01*
X357539Y285836D02*
Y282555D01*
Y285836D02*
X358562D01*
X358903Y285680*
X359017Y285524*
X359130Y285211*
Y284899*
X359017Y284586*
X358903Y284430*
X358562Y284274*
X357539D02*
X358562D01*
X358903Y284118*
X359017Y283961*
X359130Y283649*
Y283180*
X359017Y282868*
X358903Y282711*
X358562Y282555*
X357539*
X321618Y280555D02*
X329618D01*
X325618Y276555D02*
Y284555D01*
X327618Y285836D02*
Y282555D01*
Y285836D02*
X328641D01*
X328982Y285680*
X329095Y285524*
X329209Y285211*
Y284899*
X329095Y284586*
X328982Y284430*
X328641Y284274*
X327618D02*
X328641D01*
X328982Y284118*
X329095Y283961*
X329209Y283649*
Y283180*
X329095Y282868*
X328982Y282711*
X328641Y282555*
X327618*
X212747Y294803D02*
X220747Y302803D01*
X212747D02*
X220747Y294803D01*
X222747D02*
X230747Y302803D01*
X222747D02*
X230747Y294803D01*
X232747D02*
X240747Y302803D01*
X232747D02*
X240747Y294803D01*
X242747D02*
X250747Y302803D01*
X242747D02*
X250747Y294803D01*
X252747D02*
X260747Y302803D01*
X252747D02*
X260747Y294803D01*
X262747D02*
X270747Y302803D01*
X262747D02*
X270747Y294803D01*
X272747D02*
X280747Y302803D01*
X272747D02*
X280747Y294803D01*
X282747D02*
X290747Y302803D01*
X282747D02*
X290747Y294803D01*
X292747D02*
X300747Y302803D01*
X292747D02*
X300747Y294803D01*
X302747D02*
X310747Y302803D01*
X302747D02*
X310747Y294803D01*
X212747Y107409D02*
X220747Y115409D01*
X212747D02*
X220747Y107409D01*
X222747D02*
X230747Y115409D01*
X222747D02*
X230747Y107409D01*
X232747D02*
X240747Y115409D01*
X232747D02*
X240747Y107409D01*
X242747D02*
X250747Y115409D01*
X242747D02*
X250747Y107409D01*
X252747D02*
X260747Y115409D01*
X252747D02*
X260747Y107409D01*
X262747D02*
X270747Y115409D01*
X262747D02*
X270747Y107409D01*
X272747D02*
X280747Y115409D01*
X272747D02*
X280747Y107409D01*
X282747D02*
X290747Y115409D01*
X282747D02*
X290747Y107409D01*
X292747D02*
X300747Y115409D01*
X292747D02*
X300747Y107409D01*
X302747D02*
X310747Y115409D01*
X302747D02*
X310747Y107409D01*
X103870Y106377D02*
X111870D01*
X107870Y102377D02*
Y110377D01*
X113870Y106377D02*
X121870D01*
X117870Y102377D02*
Y110377D01*
X123870Y106377D02*
X131870D01*
X127870Y102377D02*
Y110377D01*
X133870Y106377D02*
X141870D01*
X137870Y102377D02*
Y110377D01*
X143870Y106377D02*
X151870D01*
X147870Y102377D02*
Y110377D01*
X153870Y106377D02*
X161870D01*
X157870Y102377D02*
Y110377D01*
X163870Y106377D02*
X171870D01*
X167870Y102377D02*
Y110377D01*
X173870Y106377D02*
X181870D01*
X177870Y102377D02*
Y110377D01*
X183870Y106377D02*
X191870D01*
X187870Y102377D02*
Y110377D01*
X193870Y106377D02*
X201870D01*
X197870Y102377D02*
Y110377D01*
X203870Y106377D02*
X211870D01*
X207870Y102377D02*
Y110377D01*
X103870Y116377D02*
X111870D01*
X107870Y112377D02*
Y120377D01*
X123870Y116377D02*
X131870D01*
X127870Y112377D02*
Y120377D01*
X153870Y116377D02*
X161870D01*
X157870Y112377D02*
Y120377D01*
X163870Y116377D02*
X171870D01*
X167870Y112377D02*
Y120377D01*
X183870Y116377D02*
X191870D01*
X187870Y112377D02*
Y120377D01*
X193870Y116377D02*
X201870D01*
X197870Y112377D02*
Y120377D01*
X202810Y117156D02*
X210810D01*
X206810Y113156D02*
Y121156D01*
X103870Y126377D02*
X111870D01*
X107870Y122377D02*
Y130377D01*
X113870Y126377D02*
X121870D01*
X117870Y122377D02*
Y130377D01*
X133870Y126377D02*
X141870D01*
X137870Y122377D02*
Y130377D01*
X153870Y126377D02*
X161870D01*
X157870Y122377D02*
Y130377D01*
X173870Y126377D02*
X181870D01*
X177870Y122377D02*
Y130377D01*
X216923Y133400D02*
X224923D01*
X220923Y129400D02*
Y137400D01*
X103870Y136377D02*
X111870D01*
X107870Y132377D02*
Y140377D01*
X113870Y136377D02*
X121870D01*
X117870Y132377D02*
Y140377D01*
X133870Y136377D02*
X141870D01*
X137870Y132377D02*
Y140377D01*
X125870Y145354D02*
X133870D01*
X129870Y141354D02*
Y149354D01*
X153870Y136377D02*
X161870D01*
X157870Y132377D02*
Y140377D01*
X186803Y140196D02*
X194803D01*
X190803Y136196D02*
Y144196D01*
X205545Y143434D02*
X213545D01*
X209545Y139434D02*
Y147434D01*
X223870Y136377D02*
X231870D01*
X227870Y132377D02*
Y140377D01*
X103870Y146377D02*
X111870D01*
X107870Y142377D02*
Y150377D01*
X173369Y153786D02*
X181369D01*
X177369Y149786D02*
Y157786D01*
X179167Y149052D02*
X187167D01*
X183167Y145052D02*
Y153052D01*
X223870Y146377D02*
X231870D01*
X227870Y142377D02*
Y150377D01*
X266077Y147062D02*
X274077D01*
X270077Y143062D02*
Y151062D01*
X103870Y156377D02*
X111870D01*
X107870Y152377D02*
Y160377D01*
X113870Y156377D02*
X121870D01*
X117870Y152377D02*
Y160377D01*
X123870Y156377D02*
X131870D01*
X127870Y152377D02*
Y160377D01*
X133870Y156377D02*
X141870D01*
X137870Y152377D02*
Y160377D01*
X176091Y165975D02*
X184091D01*
X180091Y161975D02*
Y169975D01*
X223870Y156377D02*
X231870D01*
X227870Y152377D02*
Y160377D01*
X243870Y156377D02*
X251870D01*
X247870Y152377D02*
Y160377D01*
X266077Y157062D02*
X274077D01*
X270077Y153062D02*
Y161062D01*
X103870Y166377D02*
X111870D01*
X107870Y162377D02*
Y170377D01*
X133870Y166377D02*
X141870D01*
X137870Y162377D02*
Y170377D01*
X143870Y166377D02*
X151870D01*
X147870Y162377D02*
Y170377D01*
X153870Y166377D02*
X161870D01*
X157870Y162377D02*
Y170377D01*
X193870Y166377D02*
X201870D01*
X197870Y162377D02*
Y170377D01*
X186504Y166803D02*
X194504D01*
X190504Y162803D02*
Y170803D01*
X213870Y166377D02*
X221870D01*
X217870Y162377D02*
Y170377D01*
X223870Y166377D02*
X231870D01*
X227870Y162377D02*
Y170377D01*
X243870Y166377D02*
X251870D01*
X247870Y162377D02*
Y170377D01*
X268602Y169990D02*
X276602D01*
X272602Y165990D02*
Y173990D01*
X103870Y176377D02*
X111870D01*
X107870Y172377D02*
Y180377D01*
X123870Y176377D02*
X131870D01*
X127870Y172377D02*
Y180377D01*
X130957Y183928D02*
X138957D01*
X134957Y179928D02*
Y187928D01*
X153870Y176377D02*
X161870D01*
X157870Y172377D02*
Y180377D01*
X163870Y176377D02*
X171870D01*
X167870Y172377D02*
Y180377D01*
X177777Y182627D02*
X185777D01*
X181777Y178627D02*
Y186627D01*
X203870Y176377D02*
X211870D01*
X207870Y172377D02*
Y180377D01*
X223870Y176377D02*
X231870D01*
X227870Y172377D02*
Y180377D01*
X220467Y185619D02*
X228467D01*
X224467Y181619D02*
Y189619D01*
X243870Y176377D02*
X251870D01*
X247870Y172377D02*
Y180377D01*
X266077Y177062D02*
X274077D01*
X270077Y173062D02*
Y181062D01*
X103870Y186377D02*
X111870D01*
X107870Y182377D02*
Y190377D01*
X179167Y189643D02*
X187167D01*
X183167Y185643D02*
Y193643D01*
X213870Y186377D02*
X221870D01*
X217870Y182377D02*
Y190377D01*
X243870Y186377D02*
X251870D01*
X247870Y182377D02*
Y190377D01*
X241645Y195558D02*
X249645D01*
X245645Y191558D02*
Y199558D01*
X293870Y136377D02*
X301870D01*
X297870Y132377D02*
Y140377D01*
X293870Y126377D02*
X301870D01*
X297870Y122377D02*
Y130377D01*
X283870Y136377D02*
X291870D01*
X287870Y132377D02*
Y140377D01*
X286609Y128046D02*
X294609D01*
X290609Y124046D02*
Y132046D01*
X353870Y126377D02*
X361870D01*
X357870Y122377D02*
Y130377D01*
X353870Y116377D02*
X361870D01*
X357870Y112377D02*
Y120377D01*
X353870Y106377D02*
X361870D01*
X357870Y102377D02*
Y110377D01*
X323870Y136377D02*
X331870D01*
X327870Y132377D02*
Y140377D01*
X323870Y116377D02*
X331870D01*
X327870Y112377D02*
Y120377D01*
X323870Y106377D02*
X331870D01*
X327870Y102377D02*
Y110377D01*
X313870Y136377D02*
X321870D01*
X317870Y132377D02*
Y140377D01*
X313870Y126377D02*
X321870D01*
X317870Y122377D02*
Y130377D01*
X313870Y116377D02*
X321870D01*
X317870Y112377D02*
Y120377D01*
X313870Y106377D02*
X321870D01*
X317870Y102377D02*
Y110377D01*
X303870Y126377D02*
X311870D01*
X307870Y122377D02*
Y130377D01*
X339685Y135865D02*
X347685D01*
X343685Y131865D02*
Y139865D01*
X133870Y206377D02*
X141870D01*
X137870Y202377D02*
Y210377D01*
X123870Y206377D02*
X131870D01*
X127870Y202377D02*
Y210377D01*
X123870Y196377D02*
X131870D01*
X127870Y192377D02*
Y200377D01*
X103870Y216377D02*
X111870D01*
X107870Y212377D02*
Y220377D01*
X103870Y206377D02*
X111870D01*
X107870Y202377D02*
Y210377D01*
X103870Y196377D02*
X111870D01*
X107870Y192377D02*
Y200377D01*
X130995Y214178D02*
X138995D01*
X134995Y210178D02*
Y218178D01*
X163870Y196377D02*
X171870D01*
X167870Y192377D02*
Y200377D01*
X153870Y206377D02*
X161870D01*
X157870Y202377D02*
Y210377D01*
X153870Y196377D02*
X161870D01*
X157870Y192377D02*
Y200377D01*
X143870Y206377D02*
X151870D01*
X147870Y202377D02*
Y210377D01*
X176682Y214493D02*
X184682D01*
X180682Y210493D02*
Y218493D01*
X175262Y209760D02*
X183262D01*
X179262Y205760D02*
Y213760D01*
X293870Y196377D02*
X301870D01*
X297870Y192377D02*
Y200377D01*
X293870Y146377D02*
X301870D01*
X297870Y142377D02*
Y150377D01*
X283870Y146377D02*
X291870D01*
X287870Y142377D02*
Y150377D01*
X273870Y206377D02*
X281870D01*
X277870Y202377D02*
Y210377D01*
X263870Y206377D02*
X271870D01*
X267870Y202377D02*
Y210377D01*
X288714Y184303D02*
X296714D01*
X292714Y180303D02*
Y188303D01*
X283451Y183783D02*
X291451D01*
X287451Y179783D02*
Y187783D01*
X228483Y213769D02*
X236483D01*
X232483Y209769D02*
Y217769D01*
X229506Y218700D02*
X237506D01*
X233506Y214700D02*
Y222700D01*
X249264Y215864D02*
X257264D01*
X253264Y211864D02*
Y219864D01*
X271825Y198636D02*
X279825D01*
X275825Y194636D02*
Y202636D01*
X240052Y214206D02*
X248052D01*
X244052Y210206D02*
Y218206D01*
X276890Y152717D02*
X284890D01*
X280890Y148717D02*
Y156717D01*
X343870Y216377D02*
X351870D01*
X347870Y212377D02*
Y220377D01*
X343870Y206377D02*
X351870D01*
X347870Y202377D02*
Y210377D01*
X343870Y196377D02*
X351870D01*
X347870Y192377D02*
Y200377D01*
X343870Y186377D02*
X351870D01*
X347870Y182377D02*
Y190377D01*
X343870Y176377D02*
X351870D01*
X347870Y172377D02*
Y180377D01*
X343870Y166377D02*
X351870D01*
X347870Y162377D02*
Y170377D01*
X343870Y156377D02*
X351870D01*
X347870Y152377D02*
Y160377D01*
X333870Y206377D02*
X341870D01*
X337870Y202377D02*
Y210377D01*
X333870Y196377D02*
X341870D01*
X337870Y192377D02*
Y200377D01*
X333870Y186377D02*
X341870D01*
X337870Y182377D02*
Y190377D01*
X333870Y176377D02*
X341870D01*
X337870Y172377D02*
Y180377D01*
X333870Y166377D02*
X341870D01*
X337870Y162377D02*
Y170377D01*
X323870Y206377D02*
X331870D01*
X327870Y202377D02*
Y210377D01*
X323870Y196377D02*
X331870D01*
X327870Y192377D02*
Y200377D01*
X323870Y186377D02*
X331870D01*
X327870Y182377D02*
Y190377D01*
X323870Y176377D02*
X331870D01*
X327870Y172377D02*
Y180377D01*
X323870Y156377D02*
X331870D01*
X327870Y152377D02*
Y160377D01*
X323870Y146377D02*
X331870D01*
X327870Y142377D02*
Y150377D01*
X313870Y206377D02*
X321870D01*
X317870Y202377D02*
Y210377D01*
X313870Y196377D02*
X321870D01*
X317870Y192377D02*
Y200377D01*
X313870Y186377D02*
X321870D01*
X317870Y182377D02*
Y190377D01*
X313870Y166377D02*
X321870D01*
X317870Y162377D02*
Y170377D01*
X313870Y156377D02*
X321870D01*
X317870Y152377D02*
Y160377D01*
X313870Y146377D02*
X321870D01*
X317870Y142377D02*
Y150377D01*
X303870Y196377D02*
X311870D01*
X307870Y192377D02*
Y200377D01*
X304782Y169840D02*
X312782D01*
X308782Y165840D02*
Y173840D01*
X133870Y276377D02*
X141870D01*
X137870Y272377D02*
Y280377D01*
X123870Y246377D02*
X131870D01*
X127870Y242377D02*
Y250377D01*
X123870Y236377D02*
X131870D01*
X127870Y232377D02*
Y240377D01*
X123870Y226377D02*
X131870D01*
X127870Y222377D02*
Y230377D01*
X113870Y236377D02*
X121870D01*
X117870Y232377D02*
Y240377D01*
X103870Y286377D02*
X111870D01*
X107870Y282377D02*
Y290377D01*
X103870Y256377D02*
X111870D01*
X107870Y252377D02*
Y260377D01*
X103870Y246377D02*
X111870D01*
X107870Y242377D02*
Y250377D01*
X103870Y236377D02*
X111870D01*
X107870Y232377D02*
Y240377D01*
X103870Y226377D02*
X111870D01*
X107870Y222377D02*
Y230377D01*
X117879Y282543D02*
X125879D01*
X121879Y278543D02*
Y286543D01*
X131144Y255634D02*
X139144D01*
X135144Y251634D02*
Y259634D01*
X117201Y277612D02*
X125201D01*
X121201Y273612D02*
Y281612D01*
X193870Y266377D02*
X201870D01*
X197870Y262377D02*
Y270377D01*
X193870Y256377D02*
X201870D01*
X197870Y252377D02*
Y260377D01*
X143870Y276377D02*
X151870D01*
X147870Y272377D02*
Y280377D01*
X143870Y236377D02*
X151870D01*
X147870Y232377D02*
Y240377D01*
X175364Y240492D02*
X183364D01*
X179364Y236492D02*
Y244492D01*
X175364Y246554D02*
X183364D01*
X179364Y242554D02*
Y250554D01*
X156169Y262192D02*
X164169D01*
X160169Y258192D02*
Y266192D01*
X161219Y264378D02*
X169219D01*
X165219Y260378D02*
Y268378D01*
X148754Y286915D02*
X156754D01*
X152754Y282915D02*
Y290915D01*
X140944Y245836D02*
X148944D01*
X144944Y241836D02*
Y249836D01*
X145993Y244479D02*
X153993D01*
X149993Y240479D02*
Y248479D01*
X198710Y294043D02*
X206710D01*
X202710Y290043D02*
Y298043D01*
X186424Y293592D02*
X194424D01*
X190424Y289592D02*
Y297592D01*
X155207Y285717D02*
X163207D01*
X159207Y281717D02*
Y289717D01*
X182126Y221949D02*
X190126D01*
X186126Y217949D02*
Y225949D01*
X151238Y262268D02*
X159238D01*
X155238Y258268D02*
Y266268D01*
X212346Y274190D02*
X220346D01*
X216346Y270190D02*
Y278190D01*
X214696Y267760D02*
X222696D01*
X218696Y263760D02*
Y271760D01*
X174364Y284924D02*
X182364D01*
X178364Y280924D02*
Y288924D01*
X226077Y257062D02*
X234077D01*
X230077Y253062D02*
Y261062D01*
X216077Y247062D02*
X224077D01*
X220077Y243062D02*
Y251062D01*
X293870Y276377D02*
X301870D01*
X297870Y272377D02*
Y280377D01*
X283870Y256377D02*
X291870D01*
X287870Y252377D02*
Y260377D01*
X283870Y246377D02*
X291870D01*
X287870Y242377D02*
Y250377D01*
X283870Y236377D02*
X291870D01*
X287870Y232377D02*
Y240377D01*
X273870Y256377D02*
X281870D01*
X277870Y252377D02*
Y260377D01*
X273870Y246377D02*
X281870D01*
X277870Y242377D02*
Y250377D01*
X273870Y236377D02*
X281870D01*
X277870Y232377D02*
Y240377D01*
X263870Y246377D02*
X271870D01*
X267870Y242377D02*
Y250377D01*
X253870Y236377D02*
X261870D01*
X257870Y232377D02*
Y240377D01*
X247786Y230815D02*
X255786D01*
X251786Y226815D02*
Y234815D01*
X249680Y243360D02*
X257680D01*
X253680Y239360D02*
Y247360D01*
X269682Y227159D02*
X277682D01*
X273682Y223159D02*
Y231159D01*
X264820Y230357D02*
X272820D01*
X268820Y226357D02*
Y234357D01*
X228866Y225891D02*
X236866D01*
X232866Y221891D02*
Y229891D01*
X261497Y222272D02*
X269497D01*
X265497Y218272D02*
Y226272D01*
X245676Y224217D02*
X253676D01*
X249676Y220217D02*
Y228217D01*
X240532Y230097D02*
X248532D01*
X244532Y226097D02*
Y234097D01*
X234220Y220960D02*
X242220D01*
X238220Y216960D02*
Y224960D01*
X356077Y267062D02*
X364077D01*
X360077Y263062D02*
Y271062D01*
X316077Y247062D02*
X324077D01*
X320077Y243062D02*
Y251062D01*
X353870Y296377D02*
X361870D01*
X357870Y292377D02*
Y300377D01*
X343870Y296377D02*
X351870D01*
X347870Y292377D02*
Y300377D01*
X343870Y286377D02*
X351870D01*
X347870Y282377D02*
Y290377D01*
X343870Y266377D02*
X351870D01*
X347870Y262377D02*
Y270377D01*
X343870Y236377D02*
X351870D01*
X347870Y232377D02*
Y240377D01*
X333870Y296377D02*
X341870D01*
X337870Y292377D02*
Y300377D01*
X333870Y286377D02*
X341870D01*
X337870Y282377D02*
Y290377D01*
X333870Y276377D02*
X341870D01*
X337870Y272377D02*
Y280377D01*
X333870Y256377D02*
X341870D01*
X337870Y252377D02*
Y260377D01*
X323870Y296377D02*
X331870D01*
X327870Y292377D02*
Y300377D01*
X313870Y296377D02*
X321870D01*
X317870Y292377D02*
Y300377D01*
X313870Y286377D02*
X321870D01*
X317870Y282377D02*
Y290377D01*
X313870Y276377D02*
X321870D01*
X317870Y272377D02*
Y280377D01*
X303870Y286377D02*
X311870D01*
X307870Y282377D02*
Y290377D01*
X303870Y276377D02*
X311870D01*
X307870Y272377D02*
Y280377D01*
X303870Y236377D02*
X311870D01*
X307870Y232377D02*
Y240377D01*
X322698Y256507D02*
X330698D01*
X326698Y252507D02*
Y260507D01*
X493701Y316000D02*
X751701D01*
X493701Y292000D02*
X751701D01*
X493701Y268000D02*
X751701D01*
X493701Y244000D02*
X751701D01*
X493701Y220000D02*
X751701D01*
X493701Y196000D02*
X751701D01*
X493701Y172000D02*
X751701D01*
X493701Y148000D02*
X751701D01*
X493701Y124000D02*
X751701D01*
X493701Y100000D02*
X751701D01*
X493701Y316000D02*
Y100000D01*
X577701Y316000D02*
Y100000D01*
X613701Y316000D02*
Y100000D01*
X649701Y316000D02*
Y100000D01*
X703701Y316000D02*
Y100000D01*
X751701Y316000D02*
Y100000D01*
X522519Y298000D02*
X524064Y300375D01*
X524428Y302375*
Y305625*
X524792Y305875*
X531883*
X532246Y305625*
Y303000*
X531883Y302750*
X524428*
X528519D02*
X529246Y301000D01*
X531155Y299125*
X533428Y298000*
X539246Y300625D02*
X538519Y301875D01*
X537428Y302750*
X535883Y304500D02*
X545974D01*
X543792Y306250D02*
Y298000D01*
X543428Y297750*
X540792Y298250*
X582519Y301000D02*
X587792D01*
X587064D02*
X586246Y299500D01*
X585155Y298625*
X582883Y297750*
X587064D02*
X585155Y298875D01*
X583246Y299500*
Y299750*
X584428Y300625*
X585155Y301875*
Y302125D02*
Y306250D01*
X582883D02*
X583610Y305000D01*
X586246D02*
X587064Y306250D01*
X587792Y304500D02*
X582883D01*
X582519Y302375D02*
X584064Y303250D01*
X585155Y304500*
X587428Y303000*
X588155D02*
X588883Y304750D01*
Y306250*
Y304750D02*
X593792D01*
X593064D02*
X592246Y302125D01*
X590428Y299125*
X588519Y297750*
X593428D02*
X591883Y299125D01*
X590064Y302125*
X589246Y304750*
X595883Y298000D02*
X606792D01*
X605974Y299125D02*
X596610D01*
X597428Y300625D02*
Y302375D01*
X597792Y302750*
X605246*
X605610Y302375*
Y300625*
X605246Y300375*
X597792*
X597428Y300625*
Y301500D02*
X605610D01*
X601519Y302750D02*
Y298000D01*
X596246Y303625D02*
X607155D01*
X597428Y304750D02*
Y305875D01*
X597792Y306250*
X605246*
X605610Y305875*
Y304750*
X605246Y304500*
X597792*
X597428Y304750*
Y305375D02*
X605610D01*
X619246Y301500D02*
X620792Y302750D01*
X621883Y304125*
X620792Y302750D02*
Y297750D01*
X625246Y299750D02*
X623792Y301250D01*
X623064Y302750D02*
X629792D01*
X628246Y303875D02*
Y298000D01*
X627883Y297750*
X626428Y298000*
X625246Y299750D02*
X623792Y301250D01*
X618519Y304750D02*
X620064Y305625D01*
X620428Y306500*
X620064Y305625D02*
X624155D01*
X622610Y304500D02*
X621155Y305625D01*
X626064Y306500D02*
X625610Y305625D01*
X624519Y304750*
X625610Y305625D02*
X629792D01*
X628246Y304500D02*
X627155Y305625D01*
X631883Y302125D02*
X642428D01*
X634883D02*
X634155Y300625D01*
X634519Y300375*
X640519*
X640883Y300125*
X640519Y298000*
X640155Y297750*
X637155Y298000*
X633792Y303875D02*
Y305625D01*
X634155Y305875*
X640519*
X640883Y305625*
Y303875*
X640519Y303625*
X634155*
X633792Y303875*
X679201Y304000D02*
Y304375D01*
X679474Y305125*
X679746Y305500*
X680292Y305875*
X681383*
X681928Y305500*
X682201Y305125*
X682474Y304375*
Y303625*
X682201Y302875*
X681928Y302500*
X680837Y301750*
Y300625*
Y298750D02*
X680564Y298375D01*
X680837Y298000*
X681110Y298375*
X680837Y298750*
X684928Y304000D02*
Y304375D01*
X685201Y305125*
X685474Y305500*
X686019Y305875*
X687110*
X687655Y305500*
X687928Y305125*
X688201Y304375*
Y303625*
X687928Y302875*
X687655Y302500*
X686564Y301750*
Y300625*
Y298750D02*
X686292Y298375D01*
X686564Y298000*
X686837Y298375*
X686564Y298750*
X720383Y305875D02*
Y298000D01*
X718474Y305875D02*
X722292D01*
X726383D02*
X725837Y305500D01*
X725292Y304750*
X725019Y304000*
X724746Y302875*
Y301000*
X725019Y299875*
X725292Y299125*
X725837Y298375*
X726383Y298000*
X727474*
X728019Y298375*
X728564Y299125*
X728837Y299875*
X729110Y301000*
Y302875*
X728837Y304000*
X728564Y304750*
X728019Y305500*
X727474Y305875*
X726383*
X731564D02*
Y298000D01*
X734837*
X501337Y281875D02*
X500519Y281500D01*
X499974Y280375*
X499701Y278500*
Y277375*
X499974Y275500*
X500519Y274375*
X501337Y274000*
X501883*
X502701Y274375*
X503246Y275500*
X503519Y277375*
Y278500*
X503246Y280375*
X502701Y281500*
X501883Y281875*
X501337*
X506246Y274750D02*
X505974Y274375D01*
X506246Y274000*
X506519Y274375*
X506246Y274750*
X512246Y280750D02*
X511974Y281500D01*
X511155Y281875*
X510610*
X509792Y281500*
X509246Y280375*
X508974Y278500*
Y276625*
X509246Y275125*
X509792Y274375*
X510610Y274000*
X510883*
X511701Y274375*
X512246Y275125*
X512519Y276250*
Y276625*
X512246Y277750*
X511701Y278500*
X510883Y278875*
X510610*
X509792Y278500*
X509246Y277750*
X508974Y276625*
X587974Y280000D02*
Y280375D01*
X588246Y281125*
X588519Y281500*
X589064Y281875*
X590155*
X590701Y281500*
X590974Y281125*
X591246Y280375*
Y279625*
X590974Y278875*
X590428Y277750*
X587701Y274000*
X591519*
X593974Y280375D02*
X594519Y280750D01*
X595337Y281875*
Y274000*
X599428Y281875D02*
X598610Y281500D01*
X598064Y280375*
X597792Y278500*
Y277375*
X598064Y275500*
X598610Y274375*
X599428Y274000*
X599974*
X600792Y274375*
X601337Y275500*
X601610Y277375*
Y278500*
X601337Y280375*
X600792Y281500*
X599974Y281875*
X599428*
X625701Y280000D02*
X637701D01*
X631701Y274000D02*
Y286000D01*
X658337Y281875D02*
X660519Y278125D01*
Y274000*
X662701Y281875D02*
X660519Y278125D01*
X665155Y281875D02*
Y274000D01*
Y281875D02*
X668701D01*
X665155Y278125D02*
X667337D01*
X665155Y274000D02*
X668701D01*
X674974Y280750D02*
X674428Y281500D01*
X673610Y281875*
X672519*
X671701Y281500*
X671155Y280750*
Y280000*
X671428Y279250*
X671701Y278875*
X672246Y278500*
X673883Y277750*
X674428Y277375*
X674701Y277000*
X674974Y276250*
Y275125*
X674428Y274375*
X673610Y274000*
X672519*
X671701Y274375*
X671155Y275125*
X711519Y280750D02*
Y274000D01*
X709064Y277375D02*
X713974D01*
X721337Y283375D02*
X716428Y271375D01*
X723792Y277375D02*
X728701D01*
X732792Y281875D02*
X731974Y281500D01*
X731428Y280375*
X731155Y278500*
Y277375*
X731428Y275500*
X731974Y274375*
X732792Y274000*
X733337*
X734155Y274375*
X734701Y275500*
X734974Y277375*
Y278500*
X734701Y280375*
X734155Y281500*
X733337Y281875*
X732792*
X737701Y274750D02*
X737428Y274375D01*
X737701Y274000*
X737974Y274375*
X737701Y274750*
X742064Y281875D02*
X741246Y281500D01*
X740701Y280375*
X740428Y278500*
Y277375*
X740701Y275500*
X741246Y274375*
X742064Y274000*
X742610*
X743428Y274375*
X743974Y275500*
X744246Y277375*
Y278500*
X743974Y280375*
X743428Y281500*
X742610Y281875*
X742064*
X499701Y256375D02*
X500246Y256750D01*
X501064Y257875*
Y250000*
X503792Y250750D02*
X503519Y250375D01*
X503792Y250000*
X504064Y250375*
X503792Y250750*
X507064Y257875D02*
X510064D01*
X508428Y254875*
X509246*
X509792Y254500*
X510064Y254125*
X510337Y253000*
Y252250*
X510064Y251125*
X509519Y250375*
X508701Y250000*
X507883*
X507064Y250375*
X506792Y250750*
X506519Y251500*
X513064Y256000D02*
Y256375D01*
X513337Y257125*
X513610Y257500*
X514155Y257875*
X515246*
X515792Y257500*
X516064Y257125*
X516337Y256375*
Y255625*
X516064Y254875*
X515519Y253750*
X512792Y250000*
X516610*
X589883Y256000D02*
Y256375D01*
X590155Y257125*
X590428Y257500*
X590974Y257875*
X592064*
X592610Y257500*
X592883Y257125*
X593155Y256375*
Y255625*
X592883Y254875*
X592337Y253750*
X589610Y250000*
X593428*
X597519Y257875D02*
X596701Y257500D01*
X596155Y256375*
X595883Y254500*
Y253375*
X596155Y251500*
X596701Y250375*
X597519Y250000*
X598064*
X598883Y250375*
X599428Y251500*
X599701Y253375*
Y254500*
X599428Y256375*
X598883Y257500*
X598064Y257875*
X597519*
X625701Y250000D02*
X637701Y262000D01*
X625701D02*
X637701Y250000D01*
X658337Y257875D02*
X660519Y254125D01*
Y250000*
X662701Y257875D02*
X660519Y254125D01*
X665155Y257875D02*
Y250000D01*
Y257875D02*
X668701D01*
X665155Y254125D02*
X667337D01*
X665155Y250000D02*
X668701D01*
X674974Y256750D02*
X674428Y257500D01*
X673610Y257875*
X672519*
X671701Y257500*
X671155Y256750*
Y256000*
X671428Y255250*
X671701Y254875*
X672246Y254500*
X673883Y253750*
X674428Y253375*
X674701Y253000*
X674974Y252250*
Y251125*
X674428Y250375*
X673610Y250000*
X672519*
X671701Y250375*
X671155Y251125*
X711519Y256750D02*
Y250000D01*
X709064Y253375D02*
X713974D01*
X721337Y259375D02*
X716428Y247375D01*
X723792Y253375D02*
X728701D01*
X732792Y257875D02*
X731974Y257500D01*
X731428Y256375*
X731155Y254500*
Y253375*
X731428Y251500*
X731974Y250375*
X732792Y250000*
X733337*
X734155Y250375*
X734701Y251500*
X734974Y253375*
Y254500*
X734701Y256375*
X734155Y257500*
X733337Y257875*
X732792*
X737701Y250750D02*
X737428Y250375D01*
X737701Y250000*
X737974Y250375*
X737701Y250750*
X742064Y257875D02*
X741246Y257500D01*
X740701Y256375*
X740428Y254500*
Y253375*
X740701Y251500*
X741246Y250375*
X742064Y250000*
X742610*
X743428Y250375*
X743974Y251500*
X744246Y253375*
Y254500*
X743974Y256375*
X743428Y257500*
X742610Y257875*
X742064*
X501337Y233875D02*
X500519Y233500D01*
X499974Y232375*
X499701Y230500*
Y229375*
X499974Y227500*
X500519Y226375*
X501337Y226000*
X501883*
X502701Y226375*
X503246Y227500*
X503519Y229375*
Y230500*
X503246Y232375*
X502701Y233500*
X501883Y233875*
X501337*
X506246Y226750D02*
X505974Y226375D01*
X506246Y226000*
X506519Y226375*
X506246Y226750*
X512792Y233875D02*
X510064Y226000D01*
X508974Y233875D02*
X512792D01*
X518792D02*
X516064D01*
X515792Y230500*
X516064Y230875*
X516883Y231250*
X517701*
X518519Y230875*
X519064Y230125*
X519337Y229000*
X519064Y228250*
X518792Y227125*
X518246Y226375*
X517428Y226000*
X516610*
X515792Y226375*
X515519Y226750*
X515246Y227500*
X595337Y233875D02*
X592610Y228625D01*
X596701*
X595337Y233875D02*
Y226000D01*
X625701D02*
X637701D01*
Y238000*
X625701*
Y226000*
X631701Y232000D02*
Y238000D01*
X658337Y233875D02*
X660519Y230125D01*
Y226000*
X662701Y233875D02*
X660519Y230125D01*
X665155Y233875D02*
Y226000D01*
Y233875D02*
X668701D01*
X665155Y230125D02*
X667337D01*
X665155Y226000D02*
X668701D01*
X674974Y232750D02*
X674428Y233500D01*
X673610Y233875*
X672519*
X671701Y233500*
X671155Y232750*
Y232000*
X671428Y231250*
X671701Y230875*
X672246Y230500*
X673883Y229750*
X674428Y229375*
X674701Y229000*
X674974Y228250*
Y227125*
X674428Y226375*
X673610Y226000*
X672519*
X671701Y226375*
X671155Y227125*
X711519Y232750D02*
Y226000D01*
X709064Y229375D02*
X713974D01*
X721337Y235375D02*
X716428Y223375D01*
X723792Y229375D02*
X728701D01*
X732792Y233875D02*
X731974Y233500D01*
X731428Y232375*
X731155Y230500*
Y229375*
X731428Y227500*
X731974Y226375*
X732792Y226000*
X733337*
X734155Y226375*
X734701Y227500*
X734974Y229375*
Y230500*
X734701Y232375*
X734155Y233500*
X733337Y233875*
X732792*
X737701Y226750D02*
X737428Y226375D01*
X737701Y226000*
X737974Y226375*
X737701Y226750*
X742064Y233875D02*
X741246Y233500D01*
X740701Y232375*
X740428Y230500*
Y229375*
X740701Y227500*
X741246Y226375*
X742064Y226000*
X742610*
X743428Y226375*
X743974Y227500*
X744246Y229375*
Y230500*
X743974Y232375*
X743428Y233500*
X742610Y233875*
X742064*
X499701Y208375D02*
X500246Y208750D01*
X501064Y209875*
Y202000*
X503792Y202750D02*
X503519Y202375D01*
X503792Y202000*
X504064Y202375*
X503792Y202750*
X510064Y209875D02*
X507337D01*
X507064Y206500*
X507337Y206875*
X508155Y207250*
X508974*
X509792Y206875*
X510337Y206125*
X510610Y205000*
X510337Y204250*
X510064Y203125*
X509519Y202375*
X508701Y202000*
X507883*
X507064Y202375*
X506792Y202750*
X506519Y203500*
X593019Y208000D02*
Y208375D01*
X593292Y209125*
X593564Y209500*
X594110Y209875*
X595201*
X595746Y209500*
X596019Y209125*
X596292Y208375*
Y207625*
X596019Y206875*
X595474Y205750*
X592746Y202000*
X596564*
X631701D02*
X637701Y208000D01*
X631701Y214000*
X625701Y208000*
X631701Y202000*
Y208000D02*
Y214000D01*
X658337Y209875D02*
X660519Y206125D01*
Y202000*
X662701Y209875D02*
X660519Y206125D01*
X665155Y209875D02*
Y202000D01*
Y209875D02*
X668701D01*
X665155Y206125D02*
X667337D01*
X665155Y202000D02*
X668701D01*
X674974Y208750D02*
X674428Y209500D01*
X673610Y209875*
X672519*
X671701Y209500*
X671155Y208750*
Y208000*
X671428Y207250*
X671701Y206875*
X672246Y206500*
X673883Y205750*
X674428Y205375*
X674701Y205000*
X674974Y204250*
Y203125*
X674428Y202375*
X673610Y202000*
X672519*
X671701Y202375*
X671155Y203125*
X711519Y208750D02*
Y202000D01*
X709064Y205375D02*
X713974D01*
X721337Y211375D02*
X716428Y199375D01*
X723792Y205375D02*
X728701D01*
X732792Y209875D02*
X731974Y209500D01*
X731428Y208375*
X731155Y206500*
Y205375*
X731428Y203500*
X731974Y202375*
X732792Y202000*
X733337*
X734155Y202375*
X734701Y203500*
X734974Y205375*
Y206500*
X734701Y208375*
X734155Y209500*
X733337Y209875*
X732792*
X737701Y202750D02*
X737428Y202375D01*
X737701Y202000*
X737974Y202375*
X737701Y202750*
X742064Y209875D02*
X741246Y209500D01*
X740701Y208375*
X740428Y206500*
Y205375*
X740701Y203500*
X741246Y202375*
X742064Y202000*
X742610*
X743428Y202375*
X743974Y203500*
X744246Y205375*
Y206500*
X743974Y208375*
X743428Y209500*
X742610Y209875*
X742064*
X501337Y185875D02*
X500519Y185500D01*
X499974Y184375*
X499701Y182500*
Y181375*
X499974Y179500*
X500519Y178375*
X501337Y178000*
X501883*
X502701Y178375*
X503246Y179500*
X503519Y181375*
Y182500*
X503246Y184375*
X502701Y185500*
X501883Y185875*
X501337*
X506246Y178750D02*
X505974Y178375D01*
X506246Y178000*
X506519Y178375*
X506246Y178750*
X512792Y185875D02*
X510064Y178000D01*
X508974Y185875D02*
X512792D01*
X521519Y183250D02*
X524519Y178000D01*
Y183250D02*
X521519Y178000D01*
X533246Y184375D02*
X533792Y184750D01*
X534610Y185875*
Y178000*
X537337Y178750D02*
X537064Y178375D01*
X537337Y178000*
X537610Y178375*
X537337Y178750*
X542792Y185875D02*
X540064Y180625D01*
X544155*
X542792Y185875D02*
Y178000D01*
X593019Y184000D02*
Y184375D01*
X593292Y185125*
X593564Y185500*
X594110Y185875*
X595201*
X595746Y185500*
X596019Y185125*
X596292Y184375*
Y183625*
X596019Y182875*
X595474Y181750*
X592746Y178000*
X596564*
X625701D02*
X637701D01*
X625701Y190000*
X637701*
X625701Y178000*
X658337Y185875D02*
X660519Y182125D01*
Y178000*
X662701Y185875D02*
X660519Y182125D01*
X665155Y185875D02*
Y178000D01*
Y185875D02*
X668701D01*
X665155Y182125D02*
X667337D01*
X665155Y178000D02*
X668701D01*
X674974Y184750D02*
X674428Y185500D01*
X673610Y185875*
X672519*
X671701Y185500*
X671155Y184750*
Y184000*
X671428Y183250*
X671701Y182875*
X672246Y182500*
X673883Y181750*
X674428Y181375*
X674701Y181000*
X674974Y180250*
Y179125*
X674428Y178375*
X673610Y178000*
X672519*
X671701Y178375*
X671155Y179125*
X711519Y184750D02*
Y178000D01*
X709064Y181375D02*
X713974D01*
X721337Y187375D02*
X716428Y175375D01*
X723792Y181375D02*
X728701D01*
X732792Y185875D02*
X731974Y185500D01*
X731428Y184375*
X731155Y182500*
Y181375*
X731428Y179500*
X731974Y178375*
X732792Y178000*
X733337*
X734155Y178375*
X734701Y179500*
X734974Y181375*
Y182500*
X734701Y184375*
X734155Y185500*
X733337Y185875*
X732792*
X737701Y178750D02*
X737428Y178375D01*
X737701Y178000*
X737974Y178375*
X737701Y178750*
X742064Y185875D02*
X741246Y185500D01*
X740701Y184375*
X740428Y182500*
Y181375*
X740701Y179500*
X741246Y178375*
X742064Y178000*
X742610*
X743428Y178375*
X743974Y179500*
X744246Y181375*
Y182500*
X743974Y184375*
X743428Y185500*
X742610Y185875*
X742064*
X501337Y161875D02*
X500519Y161500D01*
X499974Y160375*
X499701Y158500*
Y157375*
X499974Y155500*
X500519Y154375*
X501337Y154000*
X501883*
X502701Y154375*
X503246Y155500*
X503519Y157375*
Y158500*
X503246Y160375*
X502701Y161500*
X501883Y161875*
X501337*
X506246Y154750D02*
X505974Y154375D01*
X506246Y154000*
X506519Y154375*
X506246Y154750*
X510337Y161875D02*
X509519Y161500D01*
X509246Y160750*
Y160000*
X509519Y159250*
X510064Y158875*
X511155Y158500*
X511974Y158125*
X512519Y157375*
X512792Y156625*
Y155500*
X512519Y154750*
X512246Y154375*
X511428Y154000*
X510337*
X509519Y154375*
X509246Y154750*
X508974Y155500*
Y156625*
X509246Y157375*
X509792Y158125*
X510610Y158500*
X511701Y158875*
X512246Y159250*
X512519Y160000*
Y160750*
X512246Y161500*
X511428Y161875*
X510337*
X516610D02*
X515792Y161500D01*
X515519Y160750*
Y160000*
X515792Y159250*
X516337Y158875*
X517428Y158500*
X518246Y158125*
X518792Y157375*
X519064Y156625*
Y155500*
X518792Y154750*
X518519Y154375*
X517701Y154000*
X516610*
X515792Y154375*
X515519Y154750*
X515246Y155500*
Y156625*
X515519Y157375*
X516064Y158125*
X516883Y158500*
X517974Y158875*
X518519Y159250*
X518792Y160000*
Y160750*
X518519Y161500*
X517701Y161875*
X516610*
X525064Y159250D02*
X524792Y158125D01*
X524246Y157375*
X523428Y157000*
X523155*
X522337Y157375*
X521792Y158125*
X521519Y159250*
Y159625*
X521792Y160750*
X522337Y161500*
X523155Y161875*
X523428*
X524246Y161500*
X524792Y160750*
X525064Y159250*
Y157375*
X524792Y155500*
X524246Y154375*
X523428Y154000*
X522883*
X522064Y154375*
X521792Y155125*
X593019Y160000D02*
Y160375D01*
X593292Y161125*
X593564Y161500*
X594110Y161875*
X595201*
X595746Y161500*
X596019Y161125*
X596292Y160375*
Y159625*
X596019Y158875*
X595474Y157750*
X592746Y154000*
X596564*
X625701D02*
X637701Y166000D01*
Y154000*
X625701Y166000*
Y154000*
X658337Y161875D02*
X660519Y158125D01*
Y154000*
X662701Y161875D02*
X660519Y158125D01*
X665155Y161875D02*
Y154000D01*
Y161875D02*
X668701D01*
X665155Y158125D02*
X667337D01*
X665155Y154000D02*
X668701D01*
X674974Y160750D02*
X674428Y161500D01*
X673610Y161875*
X672519*
X671701Y161500*
X671155Y160750*
Y160000*
X671428Y159250*
X671701Y158875*
X672246Y158500*
X673883Y157750*
X674428Y157375*
X674701Y157000*
X674974Y156250*
Y155125*
X674428Y154375*
X673610Y154000*
X672519*
X671701Y154375*
X671155Y155125*
X711519Y160750D02*
Y154000D01*
X709064Y157375D02*
X713974D01*
X721337Y163375D02*
X716428Y151375D01*
X723792Y157375D02*
X728701D01*
X732792Y161875D02*
X731974Y161500D01*
X731428Y160375*
X731155Y158500*
Y157375*
X731428Y155500*
X731974Y154375*
X732792Y154000*
X733337*
X734155Y154375*
X734701Y155500*
X734974Y157375*
Y158500*
X734701Y160375*
X734155Y161500*
X733337Y161875*
X732792*
X737701Y154750D02*
X737428Y154375D01*
X737701Y154000*
X737974Y154375*
X737701Y154750*
X742064Y161875D02*
X741246Y161500D01*
X740701Y160375*
X740428Y158500*
Y157375*
X740701Y155500*
X741246Y154375*
X742064Y154000*
X742610*
X743428Y154375*
X743974Y155500*
X744246Y157375*
Y158500*
X743974Y160375*
X743428Y161500*
X742610Y161875*
X742064*
X501337Y137875D02*
X500519Y137500D01*
X499974Y136375*
X499701Y134500*
Y133375*
X499974Y131500*
X500519Y130375*
X501337Y130000*
X501883*
X502701Y130375*
X503246Y131500*
X503519Y133375*
Y134500*
X503246Y136375*
X502701Y137500*
X501883Y137875*
X501337*
X506246Y130750D02*
X505974Y130375D01*
X506246Y130000*
X506519Y130375*
X506246Y130750*
X512519Y137875D02*
X509792D01*
X509519Y134500*
X509792Y134875*
X510610Y135250*
X511428*
X512246Y134875*
X512792Y134125*
X513064Y133000*
X512792Y132250*
X512519Y131125*
X511974Y130375*
X511155Y130000*
X510337*
X509519Y130375*
X509246Y130750*
X508974Y131500*
X521792Y135250D02*
X524792Y130000D01*
Y135250D02*
X521792Y130000D01*
X533792Y136000D02*
Y136375D01*
X534064Y137125*
X534337Y137500*
X534883Y137875*
X535974*
X536519Y137500*
X536792Y137125*
X537064Y136375*
Y135625*
X536792Y134875*
X536246Y133750*
X533519Y130000*
X537337*
X593019Y136000D02*
Y136375D01*
X593292Y137125*
X593564Y137500*
X594110Y137875*
X595201*
X595746Y137500*
X596019Y137125*
X596292Y136375*
Y135625*
X596019Y134875*
X595474Y133750*
X592746Y130000*
X596564*
X625701Y136000D02*
X637701D01*
X631701Y130000D02*
Y142000D01*
X636446Y145300D02*
X634701Y139000D01*
X636446Y145300D02*
X638192Y139000D01*
X635355Y141100D02*
X637537D01*
X658337Y137875D02*
X660519Y134125D01*
Y130000*
X662701Y137875D02*
X660519Y134125D01*
X665155Y137875D02*
Y130000D01*
Y137875D02*
X668701D01*
X665155Y134125D02*
X667337D01*
X665155Y130000D02*
X668701D01*
X674974Y136750D02*
X674428Y137500D01*
X673610Y137875*
X672519*
X671701Y137500*
X671155Y136750*
Y136000*
X671428Y135250*
X671701Y134875*
X672246Y134500*
X673883Y133750*
X674428Y133375*
X674701Y133000*
X674974Y132250*
Y131125*
X674428Y130375*
X673610Y130000*
X672519*
X671701Y130375*
X671155Y131125*
X711519Y136750D02*
Y130000D01*
X709064Y133375D02*
X713974D01*
X721337Y139375D02*
X716428Y127375D01*
X723792Y133375D02*
X728701D01*
X732792Y137875D02*
X731974Y137500D01*
X731428Y136375*
X731155Y134500*
Y133375*
X731428Y131500*
X731974Y130375*
X732792Y130000*
X733337*
X734155Y130375*
X734701Y131500*
X734974Y133375*
Y134500*
X734701Y136375*
X734155Y137500*
X733337Y137875*
X732792*
X737701Y130750D02*
X737428Y130375D01*
X737701Y130000*
X737974Y130375*
X737701Y130750*
X742064Y137875D02*
X741246Y137500D01*
X740701Y136375*
X740428Y134500*
Y133375*
X740701Y131500*
X741246Y130375*
X742064Y130000*
X742610*
X743428Y130375*
X743974Y131500*
X744246Y133375*
Y134500*
X743974Y136375*
X743428Y137500*
X742610Y137875*
X742064*
X501337Y113875D02*
X500519Y113500D01*
X499974Y112375*
X499701Y110500*
Y109375*
X499974Y107500*
X500519Y106375*
X501337Y106000*
X501883*
X502701Y106375*
X503246Y107500*
X503519Y109375*
Y110500*
X503246Y112375*
X502701Y113500*
X501883Y113875*
X501337*
X506246Y106750D02*
X505974Y106375D01*
X506246Y106000*
X506519Y106375*
X506246Y106750*
X512519Y111250D02*
X512246Y110125D01*
X511701Y109375*
X510883Y109000*
X510610*
X509792Y109375*
X509246Y110125*
X508974Y111250*
Y111625*
X509246Y112750*
X509792Y113500*
X510610Y113875*
X510883*
X511701Y113500*
X512246Y112750*
X512519Y111250*
Y109375*
X512246Y107500*
X511701Y106375*
X510883Y106000*
X510337*
X509519Y106375*
X509246Y107125*
X593019Y112000D02*
Y112375D01*
X593292Y113125*
X593564Y113500*
X594110Y113875*
X595201*
X595746Y113500*
X596019Y113125*
X596292Y112375*
Y111625*
X596019Y110875*
X595474Y109750*
X592746Y106000*
X596564*
X625701Y112000D02*
X637701D01*
X631701Y106000D02*
Y118000D01*
X634701Y121300D02*
Y115000D01*
Y121300D02*
X636664D01*
X637319Y121000*
X637537Y120700*
X637755Y120100*
Y119500*
X637537Y118900*
X637319Y118600*
X636664Y118300*
X634701D02*
X636664D01*
X637319Y118000*
X637537Y117700*
X637755Y117100*
Y116200*
X637537Y115600*
X637319Y115300*
X636664Y115000*
X634701*
X658337Y113875D02*
X660519Y110125D01*
Y106000*
X662701Y113875D02*
X660519Y110125D01*
X665155Y113875D02*
Y106000D01*
Y113875D02*
X668701D01*
X665155Y110125D02*
X667337D01*
X665155Y106000D02*
X668701D01*
X674974Y112750D02*
X674428Y113500D01*
X673610Y113875*
X672519*
X671701Y113500*
X671155Y112750*
Y112000*
X671428Y111250*
X671701Y110875*
X672246Y110500*
X673883Y109750*
X674428Y109375*
X674701Y109000*
X674974Y108250*
Y107125*
X674428Y106375*
X673610Y106000*
X672519*
X671701Y106375*
X671155Y107125*
X711519Y112750D02*
Y106000D01*
X709064Y109375D02*
X713974D01*
X721337Y115375D02*
X716428Y103375D01*
X723792Y109375D02*
X728701D01*
X732792Y113875D02*
X731974Y113500D01*
X731428Y112375*
X731155Y110500*
Y109375*
X731428Y107500*
X731974Y106375*
X732792Y106000*
X733337*
X734155Y106375*
X734701Y107500*
X734974Y109375*
Y110500*
X734701Y112375*
X734155Y113500*
X733337Y113875*
X732792*
X737701Y106750D02*
X737428Y106375D01*
X737701Y106000*
X737974Y106375*
X737701Y106750*
X742064Y113875D02*
X741246Y113500D01*
X740701Y112375*
X740428Y110500*
Y109375*
X740701Y107500*
X741246Y106375*
X742064Y106000*
X742610*
X743428Y106375*
X743974Y107500*
X744246Y109375*
Y110500*
X743974Y112375*
X743428Y113500*
X742610Y113875*
X742064*
G54D42*
X100000Y310236D02*
X370079D01*
Y100000*
X100000*
Y310236*
G74*
X0Y0D02*
M02*
