M48
;FILE_FORMAT=2:4
INCH,LZ
FMAT,2
ICI,OFF
;TYPE=PLATED
T1C.01969
T2C.02362
T3C.02756
T4C.02953
T5C.035
T6C.03543
T7C.05197
T8C.05906
%
M72
G90
G93X0Y0
T1C.01969F095S3
X010919Y027078G85X01151Y027078
X010919Y029952G85X01151Y029952
T2C.02362F197S55
X010787Y010638
X010787Y011638
X010787Y012638
X011787Y010638
X011787Y012638
X012787Y011638
X012787Y010638
X013787Y010638
X013787Y012638
X014787Y010638
X015787Y010638
X015787Y011638
X015787Y012638
X016787Y011638
X016787Y010638
X017787Y010638
X017787Y012638
X018787Y011638
X018787Y010638
X019787Y010638
X019787Y011638
X020681Y011716
X020787Y010638
X029061Y012805
X029787Y012638
X030787Y012638
X031787Y012638
X031787Y011638
X031787Y010638
X032787Y010638
X032787Y011638
X035787Y010638
X035787Y011638
X035787Y012638
X034369Y013587
X032787Y013638
X032787Y014638
X031787Y013638
X031787Y014638
X029787Y013638
X029787Y014638
X028787Y013638
X028787Y014638
X028089Y015272
X027008Y014706
X022787Y013638
X022787Y014638
X022092Y01334
X020955Y014343
X01908Y01402
X018317Y014905
X017737Y015379
X015787Y013638
X013787Y013638
X012987Y014535
X011787Y013638
X010787Y014638
X010787Y013638
X010787Y015638
X010787Y016638
X010787Y017638
X011787Y015638
X012787Y015638
X012787Y017638
X013787Y015638
X013787Y016638
X014787Y016638
X015787Y017638
X015787Y016638
X016787Y017638
X018009Y016598
X01905Y01668
X019787Y016638
X020787Y017638
X021787Y016638
X022787Y015638
X022787Y016638
X022787Y017638
X024787Y017638
X024787Y015638
X024787Y016638
X027008Y015706
X027008Y017706
X02726Y016999
X030878Y016984
X031787Y016638
X031787Y015638
X032787Y017638
X032787Y015638
X033787Y016638
X033787Y017638
X034787Y015638
X034787Y017638
X034787Y016638
X034787Y019638
X034787Y018638
X033787Y019638
X033787Y018638
X032787Y019638
X032787Y018638
X031787Y019638
X031787Y018638
X030787Y019638
X029787Y019638
X029271Y01843
X028745Y018378
X027583Y019864
X024787Y018638
X024565Y019556
X022447Y018562
X021787Y018638
X018317Y018964
X018178Y018263
X016787Y019638
X015787Y019638
X013496Y018393
X012787Y019638
X010787Y019638
X010787Y018638
X010787Y021638
X010787Y020638
X010787Y022638
X012787Y020638
X012787Y022638
X0135Y021418
X013787Y020638
X014787Y020638
X015787Y020638
X017926Y020976
X018068Y021449
X018613Y022195
X023248Y021377
X023287Y022589
X023351Y02187
X023822Y022096
X024405Y021421
X024453Y02301
X024968Y022422
X025179Y023082
X025326Y021586
X02655Y022227
X026787Y020638
X026882Y023036
X027368Y022716
X027787Y020638
X031787Y020638
X032787Y020638
X033787Y020638
X034787Y020638
X034787Y021638
X034787Y023638
X032008Y024706
X030787Y023638
X028787Y024638
X028787Y023638
X027787Y024638
X027787Y023638
X026787Y024638
X025787Y023638
X025368Y024336
X022008Y024706
X017936Y024655
X017936Y024049
X014999Y024448
X014787Y023638
X014494Y024584
X013514Y025563
X012787Y024638
X012787Y023638
X011787Y023638
X010787Y024638
X010787Y023638
X010787Y025638
X01212Y027761
X013787Y027638
X014787Y027638
X015524Y026227
X016017Y026219
X016522Y026438
X019787Y025638
X019787Y026638
X021635Y027419
X02187Y026776
X023008Y025706
X027787Y025638
X028787Y025638
X029787Y027638
X030787Y027638
X031787Y027638
X03267Y025651
X033787Y027638
X033787Y025638
X034787Y026638
X036008Y026706
X035787Y029638
X034787Y028638
X034787Y029638
X033787Y029638
X033787Y028638
X032787Y029638
X031787Y029638
X031787Y028638
X030787Y028638
X020271Y029404
X019042Y029359
X017836Y028492
X015921Y028572
X015275Y028692
X012188Y028254
X010787Y028638
T3C.02756F197S55
X030893Y018519G85X030893Y018244
X033118Y012791G85X033393Y012791
T4C.02953F197S55
X011819Y017435
X011819Y016451
X011819Y01842
X011819Y019404
T5C.035F197S55
X030893Y013578
X035618Y013578
T6C.03543F197S55
X032562Y028056
X035554Y028056
T7C.05197F107S55
X021675Y011141
X022675Y011141
X023675Y011141
X024675Y011141
X025675Y011141
X026675Y011141
X027675Y011141
X028675Y011141
X029675Y011141
X030675Y011141
X030675Y02988
X029675Y02988
X028675Y02988
X027675Y02988
X026675Y02988
X025675Y02988
X024675Y02988
X023675Y02988
X022675Y02988
X021675Y02988
T8C.05906F107S55
X03373Y01128
X03473Y01128
M30
