*
*
G04 PADS VX.2.3 Build Number: 9191294 generated Gerber (RS-274-X) file*
G04 PC Version=2.1*
*
%IN "STM32F072.pcb"*%
*
%MOIN*%
*
%FSLAX35Y35*%
*
*
*
*
G04 PC Standard Apertures*
*
*
G04 Thermal Relief Aperture macro.*
%AMTER*
1,1,$1,0,0*
1,0,$1-$2,0,0*
21,0,$3,$4,0,0,45*
21,0,$3,$4,0,0,135*
%
*
*
G04 Annular Aperture macro.*
%AMANN*
1,1,$1,0,0*
1,0,$2,0,0*
%
*
*
G04 Odd Aperture macro.*
%AMODD*
1,1,$1,0,0*
1,0,$1-0.005,0,0*
%
*
*
G04 PC Custom Aperture Macros*
*
*
*
*
*
*
G04 PC Aperture Table*
*
%ADD010C,0.001*%
%ADD042C,0.1*%
%ADD046R,0.0848X0.02969*%
%ADD047R,0.0848X0.06709*%
%ADD048O,0.12811X0.06906*%
%ADD049R,0.05724X0.09661*%
%ADD050R,0.1478X0.09661*%
%ADD051R,0.05331X0.04937*%
%ADD052R,0.04937X0.05331*%
%ADD053R,0.08874X0.22654*%
%ADD054R,0.04937X0.06906*%
%ADD055ANN,0.05921X0.03953*%
%ADD056R,0.06906X0.04937*%
%ADD057R,0.04937X0.06512*%
%ADD058ANN,0.06512X0.04543*%
%ADD059O,0.05724X0.0848*%
%ADD060O,0.0848X0.05724*%
%ADD061C,0.08874*%
%ADD062R,0.17X0.09*%
%ADD063R,0.08165X0.08165*%
%ADD064ANN,0.08165X0.06197*%
%ADD065R,0.05724X0.02181*%
%ADD066R,0.02181X0.05724*%
%ADD067R,0.06512X0.06512*%
%ADD068C,0.06512*%
%ADD069R,0.03362X0.09661*%
*
*
*
*
G04 PC Circuitry*
G04 Layer Name STM32F072.pcb - circuitry*
%LPD*%
*
*
G04 PC Custom Flashes*
G04 Layer Name STM32F072.pcb - flashes*
%LPD*%
*
*
G04 PC Circuitry*
G04 Layer Name STM32F072.pcb - circuitry*
%LPD*%
*
G54D10*
G54D42*
G01X100000Y310236D02*
X370079D01*
Y100000*
X100000*
Y310236*
G54D46*
X130255Y285147D03*
Y281997D03*
Y278848D03*
Y288297D03*
Y291446D03*
G54D47*
Y301584D03*
Y268710D03*
G54D48*
X112144Y270777D03*
Y299517D03*
G54D49*
X216493Y284092D03*
X225549D03*
X207438D03*
G54D50*
X216493Y259289D03*
G54D51*
X213534Y133361D03*
X206841D03*
X190841D03*
X197534D03*
X213534Y125361D03*
X206841D03*
X190841D03*
X197534D03*
X289269Y200268D03*
X282576D03*
X152222Y213280D03*
X145529D03*
X172222D03*
X165529D03*
X152222Y185280D03*
X145529D03*
X172222D03*
X165529D03*
X152222Y159280D03*
X145529D03*
X172222D03*
X165529D03*
X152222Y131280D03*
X145529D03*
X172222Y131176D03*
X165529D03*
X290471Y178123D03*
X297164D03*
X290471Y158123D03*
X297164D03*
Y168123D03*
X290471D03*
X148486Y282604D03*
X141793D03*
X333915Y231554D03*
X327222D03*
Y250554D03*
X333915D03*
X327222Y241554D03*
X333915D03*
X359665Y246470D03*
X352972D03*
X148486Y292139D03*
X141793D03*
G54D52*
X317463Y223756D03*
Y217063D03*
Y234063D03*
Y240756D03*
X129492Y134924D03*
Y128231D03*
X204169Y149215D03*
Y155908D03*
X196169Y149215D03*
Y155908D03*
X188169Y149215D03*
Y155908D03*
X220169Y149215D03*
Y155908D03*
X212169Y149215D03*
Y155908D03*
X159207Y280139D03*
Y273446D03*
Y298139D03*
Y291446D03*
X171207Y280139D03*
Y273446D03*
Y291446D03*
Y298139D03*
X184207Y280139D03*
Y273446D03*
Y291446D03*
Y298139D03*
X196207Y280139D03*
Y273446D03*
Y291446D03*
Y298139D03*
X280818Y160777D03*
Y167470D03*
X135510Y229945D03*
Y223252D03*
Y240285D03*
Y246978D03*
G54D53*
X302463Y213709D03*
Y251110D03*
X119366Y215430D03*
Y252832D03*
G54D54*
X115255Y114902D03*
Y146791D03*
G54D55*
X118194Y184197D03*
Y174354D03*
Y164512D03*
Y194039D03*
G54D56*
X142930Y199280D03*
X174820D03*
X142930Y172280D03*
X174820D03*
X142930Y145280D03*
X174820D03*
X142930Y117280D03*
X174820D03*
G54D57*
X282148Y188864D03*
X273487Y185123D03*
X282148Y181383D03*
X334899Y223294D03*
X326238Y219554D03*
X334899Y215814D03*
G54D58*
X356177Y135783D03*
X308933D03*
G54D59*
Y183815D03*
G54D60*
X332555Y127909D03*
G54D61*
X347298Y112799D03*
X337298D03*
G54D62*
X162615Y240543D03*
G54D63*
X216747Y298803D03*
Y111409D03*
G54D64*
X226747Y298803D03*
X236747D03*
X246747D03*
X256747D03*
X266747D03*
X276747D03*
X286747D03*
X296747D03*
X306747D03*
X226747Y111409D03*
X236747D03*
X246747D03*
X256747D03*
X266747D03*
X276747D03*
X286747D03*
X296747D03*
X306747D03*
G54D65*
X259238Y210186D03*
Y212155D03*
Y214123D03*
Y216092D03*
Y218060D03*
Y220029D03*
Y221997D03*
Y223966D03*
Y225934D03*
Y227903D03*
Y229871D03*
Y231840D03*
X225773D03*
Y229871D03*
Y227903D03*
Y225934D03*
Y223966D03*
Y221997D03*
Y220029D03*
Y218060D03*
Y216092D03*
Y214123D03*
Y212155D03*
Y210186D03*
G54D66*
X253332Y237745D03*
X251364D03*
X249395D03*
X247427D03*
X245458D03*
X243490D03*
X241521D03*
X239552D03*
X237584D03*
X235615D03*
X233647D03*
X231678D03*
Y204281D03*
X233647D03*
X235615D03*
X237584D03*
X239552D03*
X241521D03*
X243490D03*
X245458D03*
X247427D03*
X249395D03*
X251364D03*
X253332D03*
G54D67*
X355539Y280555D03*
G54D68*
X325618D03*
G54D69*
X180115Y254717D03*
X175115D03*
X170115D03*
X165115D03*
X160115D03*
X155115D03*
X150115D03*
X145115D03*
Y226370D03*
X150115D03*
X155115D03*
X160115D03*
X165115D03*
X170115D03*
X175115D03*
X180115D03*
X0Y0D02*
M02*
