*
*
G04 PADS VX.2.3 Build Number: 9191294 generated Gerber (RS-274-X) file*
G04 PC Version=2.1*
*
%IN "STM32F072.pcb"*%
*
%MOIN*%
*
%FSLAX35Y35*%
*
*
*
*
G04 PC Standard Apertures*
*
*
G04 Thermal Relief Aperture macro.*
%AMTER*
1,1,$1,0,0*
1,0,$1-$2,0,0*
21,0,$3,$4,0,0,45*
21,0,$3,$4,0,0,135*
%
*
*
G04 Annular Aperture macro.*
%AMANN*
1,1,$1,0,0*
1,0,$2,0,0*
%
*
*
G04 Odd Aperture macro.*
%AMODD*
1,1,$1,0,0*
1,0,$1-0.005,0,0*
%
*
*
G04 PC Custom Aperture Macros*
*
*
*
*
*
*
G04 PC Aperture Table*
*
%ADD010C,0.001*%
%ADD011R,0.04724X0.01181*%
%ADD012R,0.01181X0.04724*%
%ADD013R,0.0748X0.01969*%
%ADD014R,0.0748X0.05709*%
%ADD016R,0.04724X0.08661*%
%ADD017R,0.1378X0.08661*%
%ADD018R,0.04331X0.03937*%
%ADD019R,0.03937X0.04331*%
%ADD020R,0.07874X0.21654*%
%ADD021R,0.03937X0.05906*%
%ADD023R,0.05906X0.03937*%
%ADD024R,0.03937X0.05512*%
%ADD031R,0.02362X0.08661*%
%ADD032R,0.16X0.08*%
%ADD042C,0.1*%
*
*
*
*
G04 PC Circuitry*
G04 Layer Name STM32F072.pcb - circuitry*
%LPD*%
*
*
G04 PC Custom Flashes*
G04 Layer Name STM32F072.pcb - flashes*
%LPD*%
*
*
G04 PC Circuitry*
G04 Layer Name STM32F072.pcb - circuitry*
%LPD*%
*
G54D10*
G54D11*
G01X259238Y210186D03*
Y212155D03*
Y214123D03*
Y216092D03*
Y218060D03*
Y220029D03*
Y221997D03*
Y223966D03*
Y225934D03*
Y227903D03*
Y229871D03*
Y231840D03*
X225773D03*
Y229871D03*
Y227903D03*
Y225934D03*
Y223966D03*
Y221997D03*
Y220029D03*
Y218060D03*
Y216092D03*
Y214123D03*
Y212155D03*
Y210186D03*
G54D12*
X253332Y237745D03*
X251364D03*
X249395D03*
X247427D03*
X245458D03*
X243490D03*
X241521D03*
X239552D03*
X237584D03*
X235615D03*
X233647D03*
X231678D03*
Y204281D03*
X233647D03*
X235615D03*
X237584D03*
X239552D03*
X241521D03*
X243490D03*
X245458D03*
X247427D03*
X249395D03*
X251364D03*
X253332D03*
G54D13*
X130255Y285147D03*
Y281997D03*
Y278848D03*
Y288297D03*
Y291446D03*
G54D14*
Y301584D03*
Y268710D03*
G54D16*
X216493Y284092D03*
X225549D03*
X207438D03*
G54D17*
X216493Y259289D03*
G54D18*
X213534Y133361D03*
X206841D03*
X190841D03*
X197534D03*
X213534Y125361D03*
X206841D03*
X190841D03*
X197534D03*
X289269Y200268D03*
X282576D03*
X152222Y213280D03*
X145529D03*
X172222D03*
X165529D03*
X152222Y185280D03*
X145529D03*
X172222D03*
X165529D03*
X152222Y159280D03*
X145529D03*
X172222D03*
X165529D03*
X152222Y131280D03*
X145529D03*
X172222Y131176D03*
X165529D03*
X290471Y178123D03*
X297164D03*
X290471Y158123D03*
X297164D03*
Y168123D03*
X290471D03*
X148486Y282604D03*
X141793D03*
X333915Y231554D03*
X327222D03*
Y250554D03*
X333915D03*
X327222Y241554D03*
X333915D03*
X359665Y246470D03*
X352972D03*
X148486Y292139D03*
X141793D03*
G54D19*
X317463Y223756D03*
Y217063D03*
Y234063D03*
Y240756D03*
X129492Y134924D03*
Y128231D03*
X204169Y149215D03*
Y155908D03*
X196169Y149215D03*
Y155908D03*
X188169Y149215D03*
Y155908D03*
X220169Y149215D03*
Y155908D03*
X212169Y149215D03*
Y155908D03*
X159207Y280139D03*
Y273446D03*
Y298139D03*
Y291446D03*
X171207Y280139D03*
Y273446D03*
Y291446D03*
Y298139D03*
X184207Y280139D03*
Y273446D03*
Y291446D03*
Y298139D03*
X196207Y280139D03*
Y273446D03*
Y291446D03*
Y298139D03*
X280818Y160777D03*
Y167470D03*
X135510Y229945D03*
Y223252D03*
Y240285D03*
Y246978D03*
G54D20*
X302463Y213709D03*
Y251110D03*
X119366Y215430D03*
Y252832D03*
G54D21*
X115255Y114902D03*
Y146791D03*
G54D23*
X142930Y199280D03*
X174820D03*
X142930Y172280D03*
X174820D03*
X142930Y145280D03*
X174820D03*
X142930Y117280D03*
X174820D03*
G54D24*
X282148Y188864D03*
X273487Y185123D03*
X282148Y181383D03*
X334899Y223294D03*
X326238Y219554D03*
X334899Y215814D03*
G54D31*
X180115Y254717D03*
X175115D03*
X170115D03*
X165115D03*
X160115D03*
X155115D03*
X150115D03*
X145115D03*
Y226370D03*
X150115D03*
X155115D03*
X160115D03*
X165115D03*
X170115D03*
X175115D03*
X180115D03*
G54D32*
X162615Y240543D03*
G54D42*
X100000Y310236D02*
X370079D01*
Y100000*
X100000*
Y310236*
X0Y0D02*
M02*
