*
*
G04 PADS VX.2.3 Build Number: 9191294 generated Gerber (RS-274-X) file*
G04 PC Version=2.1*
*
%IN "STM32F072.pcb"*%
*
%MOIN*%
*
%FSLAX35Y35*%
*
*
*
*
G04 PC Standard Apertures*
*
*
G04 Thermal Relief Aperture macro.*
%AMTER*
1,1,$1,0,0*
1,0,$1-$2,0,0*
21,0,$3,$4,0,0,45*
21,0,$3,$4,0,0,135*
%
*
*
G04 Annular Aperture macro.*
%AMANN*
1,1,$1,0,0*
1,0,$2,0,0*
%
*
*
G04 Odd Aperture macro.*
%AMODD*
1,1,$1,0,0*
1,0,$1-0.005,0,0*
%
*
*
G04 PC Custom Aperture Macros*
*
*
*
*
*
*
G04 PC Aperture Table*
*
%ADD010C,0.001*%
%ADD041C,0.01*%
%ADD042C,0.1*%
%ADD073C,0.00787*%
%ADD074C,0.0015*%
%ADD075C,0.005*%
*
*
*
*
G04 PC Circuitry*
G04 Layer Name STM32F072.pcb - circuitry*
%LPD*%
*
*
G04 PC Custom Flashes*
G04 Layer Name STM32F072.pcb - flashes*
%LPD*%
*
*
G04 PC Circuitry*
G04 Layer Name STM32F072.pcb - circuitry*
%LPD*%
*
G54D10*
G54D41*
G01X229682Y264210D02*
X203304D01*
Y278777*
X229682*
Y264210*
X211188Y130361D02*
X217188D01*
Y136361*
X211188*
X209188D02*
X203188D01*
Y130361*
X209188*
X193188Y136361D02*
X187188D01*
Y130361*
X193188*
X195188D02*
X201188D01*
Y136361*
X195188*
X211188Y122361D02*
X217188D01*
Y128361*
X211188*
X209188D02*
X203188D01*
Y122361*
X209188*
X320463Y221409D02*
Y227409D01*
X314463*
Y221409*
Y219409D02*
Y213409D01*
X320463*
Y219409*
X193188Y128361D02*
X187188D01*
Y122361*
X193188*
X195188D02*
X201188D01*
Y128361*
X195188*
X314463Y236409D02*
Y230409D01*
X320463*
Y236409*
Y238409D02*
Y244409D01*
X314463*
Y238409*
X293014Y207228D02*
Y258984D01*
X311912D02*
G75*
G03X293014I-9449J-7762D01*
G01X311912D02*
Y207228D01*
X293016Y207224D02*
G03X311910I9447J4690D01*
G01X109743Y118445D02*
X107774Y120413D01*
Y141280*
X109743Y143248*
X120766*
X122735Y141280*
Y120413*
X120766Y118445*
X109743*
X111829Y120846D02*
X110255Y122421D01*
Y139272*
X111829Y140846*
X118680*
X120255Y139272*
Y122421*
X118680Y120846*
X111829*
X112255Y122846D02*
Y138846D01*
X118255*
Y122846*
X112255*
X114255Y124846D02*
Y136846D01*
X116255*
Y124846*
X114255*
X112255Y122846D02*
X111255Y121846D01*
X118255Y122846D02*
X119255Y121846D01*
X118255Y138846D02*
X119255Y139846D01*
X112255Y138846D02*
X111255Y139846D01*
X132492Y132577D02*
Y138577D01*
X126492*
Y132577*
Y130577D02*
Y124577D01*
X132492*
Y130577*
X286923Y197268D02*
X292923D01*
Y203268*
X286923*
X284923D02*
X278923D01*
Y197268*
X284923*
X201169Y151562D02*
Y145562D01*
X207169*
Y151562*
Y153562D02*
Y159562D01*
X201169*
Y153562*
X193169Y151562D02*
Y145562D01*
X199169*
Y151562*
Y153562D02*
Y159562D01*
X193169*
Y153562*
X185169Y151562D02*
Y145562D01*
X191169*
Y151562*
Y153562D02*
Y159562D01*
X185169*
Y153562*
X217169Y151562D02*
Y145562D01*
X223169*
Y151562*
Y153562D02*
Y159562D01*
X217169*
Y153562*
X209169Y151562D02*
Y145562D01*
X215169*
Y151562*
Y153562D02*
Y159562D01*
X209169*
Y153562*
X146474Y204791D02*
X148442Y206760D01*
X169308*
X171277Y204791*
Y193768*
X169308Y191799*
X148442*
X146474Y193768*
Y204791*
X148875Y202705D02*
X150450Y204280D01*
X167301*
X168875Y202705*
Y195854*
X167301Y194280*
X150450*
X148875Y195854*
Y202705*
X150875Y202280D02*
X166875D01*
Y196280*
X150875*
Y202280*
X152875Y200280D02*
X164875D01*
Y198280*
X152875*
Y200280*
X150875Y202280D02*
X149875Y203280D01*
X150875Y196280D02*
X149875Y195280D01*
X166875Y196280D02*
X167875Y195280D01*
X166875Y202280D02*
X167875Y203280D01*
X149875Y210280D02*
X155875D01*
Y216280*
X149875*
X147875D02*
X141875D01*
Y210280*
X147875*
X169875D02*
X175875D01*
Y216280*
X169875*
X167875D02*
X161875D01*
Y210280*
X167875*
X146474Y177791D02*
X148442Y179760D01*
X169308*
X171277Y177791*
Y166768*
X169308Y164799*
X148442*
X146474Y166768*
Y177791*
X148875Y175705D02*
X150450Y177280D01*
X167301*
X168875Y175705*
Y168854*
X167301Y167280*
X150450*
X148875Y168854*
Y175705*
X150875Y175280D02*
X166875D01*
Y169280*
X150875*
Y175280*
X152875Y173280D02*
X164875D01*
Y171280*
X152875*
Y173280*
X150875Y175280D02*
X149875Y176280D01*
X150875Y169280D02*
X149875Y168280D01*
X166875Y169280D02*
X167875Y168280D01*
X166875Y175280D02*
X167875Y176280D01*
X149875Y182280D02*
X155875D01*
Y188280*
X149875*
X147875D02*
X141875D01*
Y182280*
X147875*
X169875D02*
X175875D01*
Y188280*
X169875*
X167875D02*
X161875D01*
Y182280*
X167875*
X146474Y150791D02*
X148442Y152760D01*
X169308*
X171277Y150791*
Y139768*
X169308Y137799*
X148442*
X146474Y139768*
Y150791*
X148875Y148705D02*
X150450Y150280D01*
X167301*
X168875Y148705*
Y141854*
X167301Y140280*
X150450*
X148875Y141854*
Y148705*
X150875Y148280D02*
X166875D01*
Y142280*
X150875*
Y148280*
X152875Y146280D02*
X164875D01*
Y144280*
X152875*
Y146280*
X150875Y148280D02*
X149875Y149280D01*
X150875Y142280D02*
X149875Y141280D01*
X166875Y142280D02*
X167875Y141280D01*
X166875Y148280D02*
X167875Y149280D01*
X149875Y156280D02*
X155875D01*
Y162280*
X149875*
X147875D02*
X141875D01*
Y156280*
X147875*
X169875D02*
X175875D01*
Y162280*
X169875*
X167875D02*
X161875D01*
Y156280*
X167875*
X146474Y122791D02*
X148442Y124760D01*
X169308*
X171277Y122791*
Y111768*
X169308Y109799*
X148442*
X146474Y111768*
Y122791*
X148875Y120705D02*
X150450Y122280D01*
X167301*
X168875Y120705*
Y113854*
X167301Y112280*
X150450*
X148875Y113854*
Y120705*
X150875Y120280D02*
X166875D01*
Y114280*
X150875*
Y120280*
X152875Y118280D02*
X164875D01*
Y116280*
X152875*
Y118280*
X150875Y120280D02*
X149875Y121280D01*
X150875Y114280D02*
X149875Y113280D01*
X166875Y114280D02*
X167875Y113280D01*
X166875Y120280D02*
X167875Y121280D01*
X149875Y128280D02*
X155875D01*
Y134280*
X149875*
X147875D02*
X141875D01*
Y128280*
X147875*
X169875Y128176D02*
X175875D01*
Y134176*
X169875*
X167875D02*
X161875D01*
Y128176*
X167875*
X156207Y275793D02*
Y269793D01*
X162207*
Y275793*
Y277793D02*
Y282793D01*
X161207Y283793*
X157207*
X156207Y282793*
Y277793*
X162207Y295793D02*
Y301793D01*
X156207*
Y295793*
Y293793D02*
Y287793D01*
X162207*
Y293793*
X168207Y275793D02*
Y269793D01*
X174207*
Y275793*
Y277793D02*
Y282793D01*
X173207Y283793*
X169207*
X168207Y282793*
Y277793*
Y293793D02*
Y287793D01*
X174207*
Y293793*
Y295793D02*
Y301793D01*
X168207*
Y295793*
X181207Y275793D02*
Y269793D01*
X187207*
Y275793*
Y277793D02*
Y282793D01*
X186207Y283793*
X182207*
X181207Y282793*
Y277793*
Y293793D02*
Y287793D01*
X187207*
Y293793*
Y295793D02*
Y301793D01*
X181207*
Y295793*
X193207Y275793D02*
Y269793D01*
X199207*
Y275793*
Y277793D02*
Y282793D01*
X198207Y283793*
X194207*
X193207Y282793*
Y277793*
Y293793D02*
Y287793D01*
X199207*
Y293793*
Y295793D02*
Y301793D01*
X193207*
Y295793*
X278818Y180123D02*
X272818D01*
Y181123*
X278818Y190123D02*
X272818D01*
Y189123*
X281818Y184123D02*
Y186123D01*
X292818Y181123D02*
X286818D01*
Y175123*
X292818*
X294818D02*
X300818D01*
Y181123*
X294818*
X292818Y161123D02*
X286818D01*
Y155123*
X292818*
X294818D02*
X300818D01*
Y161123*
X294818*
X363264Y197594D02*
Y122004D01*
X301846*
Y197594*
X363264*
X294818Y165123D02*
X300818D01*
Y171123*
X294818*
X292818D02*
X286818D01*
Y165123*
X292818*
X283818D02*
Y171123D01*
X277818*
Y165123*
Y163123D02*
Y158123D01*
X278818Y157123*
X282818*
X283818Y158123*
Y163123*
X331568Y214554D02*
X325568D01*
Y215554*
X331568Y224554D02*
X325568D01*
Y223554*
X334568Y218554D02*
Y220554D01*
X146139Y279604D02*
X152139D01*
Y285604*
X146139*
X144139D02*
X138139D01*
Y279604*
X144139*
X331568Y228554D02*
X337568D01*
Y234554*
X331568*
X329568D02*
X323568D01*
Y228554*
X329568*
Y253554D02*
X323568D01*
Y247554*
X329568*
X331568D02*
X337568D01*
Y253554*
X331568*
X329568Y244554D02*
X323568D01*
Y238554*
X329568*
X331568D02*
X337568D01*
Y244554*
X331568*
X355319Y249470D02*
X349319D01*
Y243470*
X355319*
X357319D02*
X362319D01*
X363319Y244470*
Y248470*
X362319Y249470*
X357319*
X146139Y289139D02*
X152139D01*
Y295139*
X146139*
X144139D02*
X138139D01*
Y289139*
X144139*
X138510Y227598D02*
Y233598D01*
X138510D02*
X132510D01*
X132510D02*
Y227598D01*
Y225598D02*
Y219598D01*
X132510D02*
X138510D01*
X138510D02*
Y225598D01*
X132510Y242631D02*
Y236631D01*
X132510D02*
X138510D01*
X138510D02*
Y242631D01*
Y244631D02*
Y250631D01*
X138510D02*
X132510D01*
X132510D02*
Y244631D01*
X109917Y208950D02*
Y260706D01*
X128815D02*
G03X109917I-9449J-7762D01*
G01X128815D02*
Y208950D01*
X109919Y208946D02*
G03X128813I9447J4690D01*
G54D42*
G01X100000Y310236D02*
X370079D01*
Y100000*
X100000*
Y310236*
G54D73*
X255497Y208021D02*
Y209596D01*
X254316Y210186*
X255497Y210777*
Y234005*
X229513*
Y208021*
X255497*
X360815Y280555D02*
G03X360815I-20236J0D01*
G01X360714Y282575D02*
X363243D01*
Y278535*
X360714*
X182615Y249008D02*
Y241601D01*
X180115*
Y239485*
X182615*
Y232079*
X142615*
Y249008*
X182615*
G54D74*
X257492Y204459D02*
Y203756D01*
X257526Y203616*
X257594Y203522*
X257697Y203475*
X257765*
X257867Y203522*
X257935Y203616*
X257969Y203756*
Y204459*
X258617D02*
X258276Y203803D01*
X258788*
X258617Y204459D02*
Y203475D01*
X113129Y284806D02*
X112379D01*
X112238Y284840*
X112191Y284874*
X112144Y284942*
Y285011*
X112191Y285079*
X112238Y285113*
X112379Y285147*
X112472*
X112941Y284499D02*
X112988Y284431D01*
X113129Y284329*
X112144*
X233391Y270101D02*
Y269398D01*
X233425Y269257*
X233493Y269164*
X233596Y269117*
X233664*
X233766Y269164*
X233834Y269257*
X233868Y269398*
Y270101*
X234175Y269914D02*
X234243Y269961D01*
X234346Y270101*
Y269117*
X210087Y133796D02*
X210053Y133890D01*
X209985Y133983*
X209917Y134030*
X209781*
X209712Y133983*
X209644Y133890*
X209610Y133796*
X209576Y133655*
Y133421*
X209610Y133280*
X209644Y133187*
X209712Y133093*
X209781Y133046*
X209917*
X209985Y133093*
X210053Y133187*
X210087Y133280*
X210462Y134030D02*
X210837D01*
X210633Y133655*
X210735*
X210803Y133608*
X210837Y133562*
X210872Y133421*
Y133327*
X210837Y133187*
X210769Y133093*
X210667Y133046*
X210565*
X210462Y133093*
X210428Y133140*
X210394Y133233*
X194699Y134111D02*
X194665Y134205D01*
X194597Y134298*
X194529Y134345*
X194392*
X194324Y134298*
X194256Y134205*
X194222Y134111*
X194188Y133970*
Y133736*
X194222Y133595*
X194256Y133502*
X194324Y133408*
X194392Y133361*
X194529*
X194597Y133408*
X194665Y133502*
X194699Y133595*
X195040Y134111D02*
Y134158D01*
X195074Y134252*
X195108Y134298*
X195176Y134345*
X195313*
X195381Y134298*
X195415Y134252*
X195449Y134158*
Y134064*
X195415Y133970*
X195347Y133830*
X195006Y133361*
X195483*
X210228Y125425D02*
X210194Y125518D01*
X210126Y125612*
X210057Y125659*
X209921*
X209853Y125612*
X209785Y125518*
X209751Y125425*
X209717Y125284*
Y125050*
X209751Y124909*
X209785Y124815*
X209853Y124721*
X209921Y124675*
X210057*
X210126Y124721*
X210194Y124815*
X210228Y124909*
X210876Y125659D02*
X210535Y125003D01*
X211046*
X210876Y125659D02*
Y124675D01*
X317530Y220604D02*
X317496Y220698D01*
X317427Y220792*
X317359Y220839*
X317223*
X317155Y220792*
X317087Y220698*
X317052Y220604*
X317018Y220464*
Y220229*
X317052Y220089*
X317087Y219995*
X317155Y219901*
X317223Y219854*
X317359*
X317427Y219901*
X317496Y219995*
X317530Y220089*
X318280Y220839D02*
X317939D01*
X317905Y220417*
X317939Y220464*
X318041Y220511*
X318143*
X318246Y220464*
X318314Y220370*
X318348Y220229*
X318314Y220136*
X318280Y219995*
X318212Y219901*
X318109Y219854*
X318007*
X317905Y219901*
X317871Y219948*
X317837Y220042*
X194699Y126111D02*
X194665Y126205D01*
X194597Y126298*
X194529Y126345*
X194392*
X194324Y126298*
X194256Y126205*
X194222Y126111*
X194188Y125970*
Y125736*
X194222Y125595*
X194256Y125502*
X194324Y125408*
X194392Y125361*
X194529*
X194597Y125408*
X194665Y125502*
X194699Y125595*
X195006Y126158D02*
X195074Y126205D01*
X195176Y126345*
Y125361*
X317460Y237560D02*
X317426Y237653D01*
X317358Y237747*
X317290Y237794*
X317153*
X317085Y237747*
X317017Y237653*
X316983Y237560*
X316949Y237419*
Y237185*
X316983Y237044*
X317017Y236950*
X317085Y236857*
X317153Y236810*
X317290*
X317358Y236857*
X317426Y236950*
X317460Y237044*
X318176Y237653D02*
X318142Y237747D01*
X318040Y237794*
X317972*
X317869Y237747*
X317801Y237607*
X317767Y237372*
Y237138*
X317801Y236950*
X317869Y236857*
X317972Y236810*
X318006*
X318108Y236857*
X318176Y236950*
X318210Y237091*
Y237138*
X318176Y237278*
X318108Y237372*
X318006Y237419*
X317972*
X317869Y237372*
X317801Y237278*
X317767Y237138*
X301479Y232409D02*
X302182D01*
X302323Y232444*
X302416Y232512*
X302463Y232614*
Y232682*
X302416Y232784*
X302323Y232853*
X302182Y232887*
X301479*
X301713Y233228D02*
X301666D01*
X301573Y233262*
X301526Y233296*
X301479Y233364*
Y233500*
X301526Y233569*
X301573Y233603*
X301666Y233637*
X301760*
X301854Y233603*
X301995Y233534*
X302463Y233194*
Y233671*
X120592Y147924D02*
X120524Y148017D01*
X120421Y148063*
X120285*
X120183Y148015*
X120115Y147921*
Y147827*
X120150Y147734*
X120184Y147687*
X120253Y147641*
X120458Y147548*
X120526Y147501*
X120561Y147455*
X120595Y147361*
X120596Y147221*
X120528Y147126*
X120426Y147079*
X120290Y147078*
X120187Y147125*
X120119Y147218*
X120899Y147878D02*
X120967Y147926D01*
X121069Y148067*
X121074Y147082*
X129834Y131858D02*
X129800Y131951D01*
X129732Y132045*
X129664Y132092*
X129527*
X129459Y132045*
X129391Y131951*
X129357Y131858*
X129323Y131717*
Y131483*
X129357Y131342*
X129391Y131248*
X129459Y131154*
X129527Y131108*
X129664*
X129732Y131154*
X129800Y131248*
X129834Y131342*
X130618Y132092D02*
X130277Y131108D01*
X130141Y132092D02*
X130618D01*
X118194Y180260D02*
Y179557D01*
X118228Y179416*
X118296Y179322*
X118296D02*
X118399Y179276D01*
X118467*
X118569Y179322*
X118637Y179416*
X118671Y179557*
X118671D02*
Y180260D01*
X119046D02*
X119421D01*
X119421D02*
X119217Y179885D01*
X119319*
X119387Y179838*
X119421Y179791*
X119421D02*
X119456Y179651D01*
Y179557*
X119421Y179416*
X119421D02*
X119353Y179322D01*
X119251Y179276*
X119149*
X119046Y179322*
X119046D02*
X119012Y179369D01*
X118978Y179463*
X285289Y200647D02*
Y199663D01*
Y200647D02*
X285596D01*
X285698Y200600*
X285732Y200553*
X285766Y200460*
Y200366*
X285732Y200272*
X285698Y200225*
X285596Y200178*
X285289*
X285527D02*
X285766Y199663D01*
X286073Y200460D02*
X286141Y200506D01*
X286243Y200647*
Y199663*
X203826Y161938D02*
X203792Y162031D01*
X203724Y162125*
X203656Y162172*
X203520*
X203451Y162125*
X203383Y162031*
X203349Y161938*
X203315Y161797*
Y161563*
X203349Y161422*
X203383Y161328*
X203451Y161235*
X203520Y161188*
X203656*
X203724Y161235*
X203792Y161328*
X203826Y161422*
X204304Y162172D02*
X204201Y162125D01*
X204167Y162031*
Y161938*
X204201Y161844*
X204270Y161797*
X204406Y161750*
X204508Y161703*
X204576Y161610*
X204610Y161516*
Y161375*
X204576Y161281*
X204542Y161235*
X204440Y161188*
X204304*
X204201Y161235*
X204167Y161281*
X204133Y161375*
Y161516*
X204167Y161610*
X204235Y161703*
X204338Y161750*
X204474Y161797*
X204542Y161844*
X204576Y161938*
Y162031*
X204542Y162125*
X204440Y162172*
X204304*
X195805Y161938D02*
X195771Y162031D01*
X195703Y162125*
X195635Y162172*
X195499*
X195430Y162125*
X195362Y162031*
X195328Y161938*
X195294Y161797*
Y161563*
X195328Y161422*
X195362Y161328*
X195430Y161235*
X195499Y161188*
X195635*
X195703Y161235*
X195771Y161328*
X195805Y161422*
X196555Y161844D02*
X196521Y161703D01*
X196453Y161610*
X196351Y161563*
X196317*
X196214Y161610*
X196146Y161703*
X196112Y161844*
Y161891*
X196146Y162031*
X196214Y162125*
X196317Y162172*
X196351*
X196453Y162125*
X196521Y162031*
X196555Y161844*
Y161610*
X196521Y161375*
X196453Y161235*
X196351Y161188*
X196283*
X196180Y161235*
X196146Y161328*
X187786Y162009D02*
X187752Y162102D01*
X187683Y162196*
X187615Y162243*
X187479*
X187411Y162196*
X187342Y162102*
X187308Y162009*
X187274Y161868*
Y161634*
X187308Y161493*
X187342Y161399*
X187411Y161305*
X187479Y161259*
X187615*
X187683Y161305*
X187752Y161399*
X187786Y161493*
X188092Y162055D02*
X188161Y162102D01*
X188263Y162243*
Y161259*
X188774Y162243D02*
X188672Y162196D01*
X188604Y162055*
X188570Y161821*
Y161680*
X188604Y161446*
X188672Y161305*
X188774Y161259*
X188842*
X188945Y161305*
X189013Y161446*
X189047Y161680*
Y161821*
X189013Y162055*
X188945Y162196*
X188842Y162243*
X188774*
X219656Y161516D02*
X219622Y161610D01*
X219553Y161704*
X219485Y161751*
X219349*
X219281Y161704*
X219213Y161610*
X219178Y161516*
X219144Y161376*
Y161141*
X219178Y161001*
X219213Y160907*
X219281Y160813*
X219349Y160766*
X219485*
X219553Y160813*
X219622Y160907*
X219656Y161001*
X219963Y161563D02*
X220031Y161610D01*
X220133Y161751*
Y160766*
X220440Y161563D02*
X220508Y161610D01*
X220610Y161751*
Y160766*
X211565Y161657D02*
X211531Y161751D01*
X211463Y161844*
X211395Y161891*
X211258*
X211190Y161844*
X211122Y161751*
X211088Y161657*
X211054Y161516*
Y161282*
X211088Y161141*
X211122Y161047*
X211190Y160954*
X211258Y160907*
X211395*
X211463Y160954*
X211531Y161047*
X211565Y161141*
X211872Y161704D02*
X211940Y161751D01*
X212042Y161891*
Y160907*
X212383Y161657D02*
Y161704D01*
X212417Y161797*
X212452Y161844*
X212520Y161891*
X212656*
X212724Y161844*
X212758Y161797*
X212792Y161704*
Y161610*
X212758Y161516*
X212690Y161376*
X212349Y160907*
X212827*
X142816Y203783D02*
X142748Y203877D01*
X142645Y203924*
X142509*
X142407Y203877*
X142339Y203783*
Y203690*
X142373Y203596*
X142407Y203549*
X142475Y203502*
X142679Y203408*
X142748Y203362*
X142782Y203315*
X142816Y203221*
Y203080*
X142748Y202987*
X142645Y202940*
X142509*
X142407Y202987*
X142339Y203080*
X143157Y203690D02*
Y203737D01*
X143191Y203830*
X143225Y203877*
X143293Y203924*
X143429*
X143498Y203877*
X143532Y203830*
X143566Y203737*
Y203643*
X143532Y203549*
X143464Y203408*
X143123Y202940*
X143600*
X148900Y218604D02*
X148866Y218698D01*
X148798Y218792*
X148729Y218839*
X148593*
X148525Y218792*
X148457Y218698*
X148423Y218604*
X148388Y218464*
Y218229*
X148423Y218089*
X148457Y217995*
X148525Y217901*
X148593Y217854*
X148729*
X148798Y217901*
X148866Y217995*
X148900Y218089*
X149207Y218651D02*
X149275Y218698D01*
X149377Y218839*
Y217854*
X149752Y218839D02*
X150127D01*
X149923Y218464*
X150025*
X150093Y218417*
X150127Y218370*
X150161Y218229*
Y218136*
X150127Y217995*
X150059Y217901*
X149957Y217854*
X149854*
X149752Y217901*
X149718Y217948*
X149684Y218042*
X168440Y218768D02*
Y217783D01*
Y218768D02*
X168746D01*
X168849Y218721*
X168883Y218674*
X168917Y218580*
Y218487*
X168883Y218393*
X168849Y218346*
X168746Y218299*
X168440*
X168678D02*
X168917Y217783D01*
X169258Y218533D02*
Y218580D01*
X169292Y218674*
X169326Y218721*
X169394Y218768*
X169531*
X169599Y218721*
X169633Y218674*
X169667Y218580*
Y218487*
X169633Y218393*
X169565Y218252*
X169224Y217783*
X169701*
X142887Y176837D02*
X142819Y176931D01*
X142716Y176978*
X142580*
X142478Y176931*
X142409Y176837*
Y176743*
X142444Y176650*
X142478Y176603*
X142546Y176556*
X142750Y176462*
X142819Y176415*
X142853Y176368*
X142887Y176275*
Y176134*
X142819Y176040*
X142716Y175993*
X142580*
X142478Y176040*
X142409Y176134*
X143262Y176978D02*
X143637D01*
X143432Y176603*
X143534*
X143603Y176556*
X143637Y176509*
X143671Y176368*
Y176275*
X143637Y176134*
X143569Y176040*
X143466Y175993*
X143364*
X143262Y176040*
X143228Y176087*
X143194Y176181*
X148267Y190251D02*
X148233Y190345D01*
X148165Y190439*
X148097Y190486*
X147960*
X147892Y190439*
X147824Y190345*
X147790Y190251*
X147756Y190111*
Y189876*
X147790Y189736*
X147824Y189642*
X147892Y189548*
X147960Y189501*
X148097*
X148165Y189548*
X148233Y189642*
X148267Y189736*
X148574Y190298D02*
X148642Y190345D01*
X148745Y190486*
Y189501*
X149392Y190486D02*
X149051Y189829D01*
X149563*
X149392Y190486D02*
Y189501D01*
X168228Y190557D02*
Y189572D01*
Y190557D02*
X168535D01*
X168637Y190510*
X168672Y190463*
X168706Y190369*
Y190275*
X168672Y190182*
X168637Y190135*
X168535Y190088*
X168228*
X168467D02*
X168706Y189572D01*
X169081Y190557D02*
X169456D01*
X169251Y190182*
X169353*
X169422Y190135*
X169456Y190088*
X169490Y189947*
Y189853*
X169456Y189713*
X169387Y189619*
X169285Y189572*
X169183*
X169081Y189619*
X169047Y189666*
X169012Y189760*
X142956Y149539D02*
X142888Y149633D01*
X142786Y149680*
X142649*
X142547Y149633*
X142479Y149539*
Y149446*
X142513Y149352*
X142547Y149305*
X142615Y149258*
X142820Y149164*
X142888Y149117*
X142922Y149071*
X142956Y148977*
Y148836*
X142888Y148742*
X142786Y148696*
X142649*
X142547Y148742*
X142479Y148836*
X143604Y149680D02*
X143263Y149024D01*
X143774*
X143604Y149680D02*
Y148696D01*
X148196Y154863D02*
X148162Y154957D01*
X148094Y155050*
X148026Y155097*
X147890*
X147821Y155050*
X147753Y154957*
X147719Y154863*
X147685Y154722*
Y154488*
X147719Y154347*
X147753Y154253*
X147821Y154160*
X147890Y154113*
X148026*
X148094Y154160*
X148162Y154253*
X148196Y154347*
X148503Y154910D02*
X148571Y154957D01*
X148674Y155097*
Y154113*
X149424Y155097D02*
X149083D01*
X149049Y154675*
X149083Y154722*
X149185Y154769*
X149287*
X149390Y154722*
X149458Y154628*
X149492Y154488*
X149458Y154394*
X149424Y154253*
X149355Y154160*
X149253Y154113*
X149151*
X149049Y154160*
X149015Y154207*
X148980Y154300*
X168228Y159108D02*
Y158123D01*
Y159108D02*
X168535D01*
X168637Y159061*
X168672Y159014*
X168706Y158920*
Y158826*
X168672Y158733*
X168637Y158686*
X168535Y158639*
X168228*
X168467D02*
X168706Y158123D01*
X169353Y159108D02*
X169012Y158451D01*
X169524*
X169353Y159108D02*
Y158123D01*
X143027Y122946D02*
X142959Y123040D01*
X142857Y123087*
X142720*
X142618Y123040*
X142550Y122946*
Y122852*
X142584Y122759*
X142618Y122712*
X142686Y122665*
X142891Y122571*
X142959Y122524*
X142993Y122477*
X143027Y122384*
Y122243*
X142959Y122149*
X142857Y122102*
X142720*
X142618Y122149*
X142550Y122243*
X143777Y123087D02*
X143436D01*
X143402Y122665*
X143436Y122712*
X143539Y122759*
X143641*
X143743Y122712*
X143811Y122618*
X143845Y122477*
X143811Y122384*
X143777Y122243*
X143709Y122149*
X143607Y122102*
X143504*
X143402Y122149*
X143368Y122196*
X143334Y122290*
X148548Y136360D02*
X148514Y136454D01*
X148446Y136548*
X148378Y136595*
X148241*
X148173Y136548*
X148105Y136454*
X148071Y136360*
X148037Y136220*
Y135985*
X148071Y135845*
X148105Y135751*
X148173Y135657*
X148241Y135610*
X148378*
X148446Y135657*
X148514Y135751*
X148548Y135845*
X148855Y136407D02*
X148923Y136454D01*
X149025Y136595*
Y135610*
X149741Y136454D02*
X149707Y136548D01*
X149605Y136595*
X149537*
X149434Y136548*
X149366Y136407*
X149332Y136173*
Y135938*
X149366Y135751*
X149434Y135657*
X149537Y135610*
X149571*
X149673Y135657*
X149741Y135751*
X149775Y135891*
Y135938*
X149741Y136079*
X149673Y136173*
X149571Y136220*
X149537*
X149434Y136173*
X149366Y136079*
X149332Y135938*
X168228Y136383D02*
Y135399D01*
Y136383D02*
X168535D01*
X168637Y136336*
X168672Y136290*
X168706Y136196*
Y136102*
X168672Y136008*
X168637Y135961*
X168535Y135915*
X168228*
X168467D02*
X168706Y135399D01*
X169456Y136383D02*
X169115D01*
X169081Y135961*
X169115Y136008*
X169217Y136055*
X169319*
X169422Y136008*
X169490Y135915*
X169524Y135774*
X169490Y135680*
X169456Y135540*
X169387Y135446*
X169285Y135399*
X169183*
X169081Y135446*
X169047Y135493*
X169012Y135586*
X165048Y277373D02*
X164980Y277466D01*
X164878Y277513*
X164741*
X164639Y277466*
X164571Y277373*
Y277279*
X164605Y277185*
X164639Y277138*
X164707Y277091*
X164912Y276998*
X164980Y276951*
X165014Y276904*
X165048Y276810*
Y276669*
X165048D02*
X164980Y276576D01*
X164878Y276529*
X164741*
X164639Y276576*
X164571Y276669*
X165764Y277373D02*
X165730Y277466D01*
X165628Y277513*
X165560*
X165560D02*
X165457Y277466D01*
X165389Y277326*
X165355Y277091*
Y276857*
X165389Y276669*
X165389D02*
X165457Y276576D01*
X165560Y276529*
X165560D02*
X165594D01*
X165696Y276576*
X165764Y276669*
X165764D02*
X165798Y276810D01*
Y276857*
X165764Y276998*
X165696Y277091*
X165594Y277138*
X165560*
X165560D02*
X165457Y277091D01*
X165389Y276998*
X165355Y276857*
X164640Y298057D02*
Y297072D01*
Y298057D02*
X164947D01*
X165050Y298010*
X165084Y297963*
X165118Y297869*
Y297775*
X165084Y297682*
X165050Y297635*
X164947Y297588*
X164640*
X164879D02*
X165118Y297072D01*
X165834Y297916D02*
X165800Y298010D01*
X165697Y298057*
X165629*
X165527Y298010*
X165459Y297869*
X165425Y297635*
Y297400*
X165459Y297213*
X165527Y297119*
X165629Y297072*
X165663*
X165765Y297119*
X165834Y297213*
X165868Y297353*
Y297400*
X165834Y297541*
X165765Y297635*
X165663Y297682*
X165629*
X165527Y297635*
X165459Y297541*
X165425Y297400*
X177570Y277936D02*
X177502Y278029D01*
X177400Y278076*
X177264*
X177161Y278029*
X177093Y277936*
Y277842*
X177127Y277748*
X177161Y277701*
X177230Y277654*
X177434Y277561*
X177502Y277514*
X177536Y277467*
X177570Y277373*
Y277232*
X177502Y277139*
X177400Y277092*
X177264*
X177161Y277139*
X177093Y277232*
X178355Y278076D02*
X178014Y277092D01*
X177877Y278076D02*
X178355D01*
X177727Y297987D02*
Y297003D01*
Y297987D02*
X178034D01*
X178136Y297940*
X178170Y297893*
X178204Y297799*
X178204D02*
Y297706D01*
X178170Y297612*
X178136Y297565*
X178034Y297518*
X177727*
X177966D02*
X178204Y297003D01*
X178988Y297987D02*
X178647Y297003D01*
X178511Y297987D02*
X178988D01*
X190164Y278218D02*
X190095Y278312D01*
X189993Y278358*
X189857*
X189755Y278312*
X189686Y278218*
Y278124*
X189720Y278030*
X189755Y277983*
X189823Y277937*
X190027Y277843*
X190095Y277796*
X190130Y277749*
X190164Y277655*
Y277515*
X190095Y277421*
X189993Y277374*
X189857*
X189755Y277421*
X189686Y277515*
X190641Y278358D02*
X190539Y278312D01*
X190505Y278218*
Y278124*
X190539Y278030*
X190607Y277983*
X190743Y277937*
X190845Y277890*
X190914Y277796*
X190948Y277702*
Y277562*
X190914Y277468*
X190880Y277421*
X190777Y277374*
X190641*
X190539Y277421*
X190505Y277468*
X190470Y277562*
Y277702*
X190505Y277796*
X190573Y277890*
X190675Y277937*
X190811Y277983*
X190880Y278030*
X190914Y278124*
Y278218*
X190880Y278312*
X190777Y278358*
X190641*
X190249Y298198D02*
Y297214D01*
Y298198D02*
X190556D01*
X190658Y298151*
X190693Y298105*
X190727Y298011*
Y297917*
X190693Y297823*
X190658Y297776*
X190556Y297730*
X190249*
X190488D02*
X190727Y297214D01*
X191204Y298198D02*
X191102Y298151D01*
X191068Y298058*
Y297964*
X191102Y297870*
X191170Y297823*
X191306Y297776*
X191408Y297730*
X191477Y297636*
X191511Y297542*
Y297401*
X191477Y297308*
X191443Y297261*
X191340Y297214*
X191204*
X191102Y297261*
X191068Y297308*
X191033Y297401*
Y297542*
X191068Y297636*
X191136Y297730*
X191238Y297776*
X191374Y297823*
X191443Y297870*
X191477Y297964*
Y298058*
X191443Y298151*
X191340Y298198*
X191204*
X201561Y278921D02*
X201493Y279015D01*
X201391Y279062*
X201254*
X201152Y279015*
X201084Y278921*
Y278827*
X201118Y278734*
X201152Y278687*
X201220Y278640*
X201425Y278546*
X201493Y278499*
X201527Y278452*
X201561Y278359*
Y278218*
X201493Y278124*
X201391Y278077*
X201254*
X201152Y278124*
X201084Y278218*
X202311Y278734D02*
X202277Y278593D01*
X202209Y278499*
X202107Y278452*
X202073*
X201970Y278499*
X201902Y278593*
X201868Y278734*
Y278781*
X201902Y278921*
X201970Y279015*
X202073Y279062*
X202107*
X202209Y279015*
X202277Y278921*
X202311Y278734*
Y278499*
X202277Y278265*
X202209Y278124*
X202107Y278077*
X202039*
X201936Y278124*
X201902Y278218*
X201436Y298408D02*
Y297424D01*
Y298408D02*
X201743D01*
X201845Y298361*
X201879Y298315*
X201913Y298221*
Y298127*
X201879Y298033*
X201845Y297986*
X201743Y297940*
X201436*
X201674D02*
X201913Y297424D01*
X202663Y298080D02*
X202629Y297940D01*
X202561Y297846*
X202458Y297799*
X202424*
X202322Y297846*
X202254Y297940*
X202220Y298080*
Y298127*
X202254Y298268*
X202322Y298361*
X202424Y298408*
X202458*
X202561Y298361*
X202629Y298268*
X202663Y298080*
Y297846*
X202629Y297611*
X202561Y297471*
X202458Y297424*
X202390*
X202288Y297471*
X202254Y297565*
X277614Y185240D02*
X277546Y185193D01*
X277478Y185100*
X277444Y185006*
X277409Y184865*
Y184631*
X277444Y184490*
X277478Y184397*
X277546Y184303*
X277614Y184256*
X277750*
X277819Y184303*
X277887Y184397*
X277921Y184490*
X277955Y184631*
Y184865*
X277921Y185006*
X277887Y185100*
X277819Y185193*
X277750Y185240*
X277614*
X277716Y184443D02*
X277921Y184162D01*
X278262Y185053D02*
X278330Y185100D01*
X278432Y185240*
Y184256*
X293098Y178908D02*
Y177924D01*
Y178908D02*
X293405D01*
X293508Y178861*
X293542Y178815*
X293576Y178721*
Y178627*
X293542Y178533*
X293508Y178486*
X293405Y178440*
X293098*
X293337D02*
X293576Y177924D01*
X293883Y178721D02*
X293951Y178768D01*
X294053Y178908*
Y177924*
X294564Y178908D02*
X294462Y178861D01*
X294394Y178721*
X294360Y178486*
Y178346*
X294394Y178111*
X294462Y177971*
X294564Y177924*
X294633*
X294735Y177971*
X294803Y178111*
X294837Y178346*
Y178486*
X294803Y178721*
X294735Y178861*
X294633Y178908*
X294564*
X293239Y158717D02*
Y157732D01*
Y158717D02*
X293546D01*
X293648Y158670*
X293682Y158623*
X293716Y158529*
Y158435*
X293682Y158342*
X293648Y158295*
X293546Y158248*
X293239*
X293477D02*
X293716Y157732D01*
X294023Y158529D02*
X294091Y158576D01*
X294193Y158717*
Y157732*
X294500Y158529D02*
X294568Y158576D01*
X294671Y158717*
Y157732*
X357185Y200295D02*
X357117Y200249D01*
X357048Y200155*
X357014Y200061*
X356980Y199920*
Y199686*
X357014Y199545*
X357048Y199452*
X357117Y199358*
X357185Y199311*
X357321*
X357389Y199358*
X357458Y199452*
X357492Y199545*
X357526Y199686*
Y199920*
X357492Y200061*
X357458Y200155*
X357389Y200249*
X357321Y200295*
X357185*
X357287Y199499D02*
X357492Y199217D01*
X357867Y200061D02*
Y200108D01*
X357901Y200202*
X357935Y200249*
X358003Y200295*
X358139*
X358208Y200249*
X358242Y200202*
X358276Y200108*
Y200014*
X358242Y199920*
X358173Y199780*
X357833Y199311*
X358310*
X293539Y168543D02*
X293505Y168636D01*
X293437Y168730*
X293368Y168777*
X293232*
X293164Y168730*
X293096Y168636*
X293062Y168543*
X293028Y168402*
Y168168*
X293062Y168027*
X293096Y167933*
X293164Y167840*
X293232Y167793*
X293368*
X293437Y167840*
X293505Y167933*
X293539Y168027*
X293846Y168590D02*
X293914Y168636D01*
X294016Y168777*
Y167793*
X294800Y168777D02*
X294459Y167793D01*
X294323Y168777D02*
X294800D01*
X280287Y164626D02*
X280219Y164579D01*
X280151Y164485*
X280117Y164392*
X280083Y164251*
Y164017*
X280117Y163876*
X280151Y163782*
X280219Y163689*
X280287Y163642*
X280424*
X280492Y163689*
X280560Y163782*
X280594Y163876*
X280628Y164017*
Y164251*
X280594Y164392*
X280560Y164485*
X280492Y164579*
X280424Y164626*
X280287*
X280389Y163829D02*
X280594Y163548D01*
X281003Y164626D02*
X281378D01*
X281174Y164251*
X281276*
X281344Y164204*
X281378Y164157*
X281412Y164017*
Y163923*
X281378Y163782*
X281310Y163689*
X281208Y163642*
X281105*
X281003Y163689*
X280969Y163735*
X280935Y163829*
X330098Y220627D02*
X330030Y220581D01*
X329962Y220487*
X329928Y220393*
X329894Y220252*
Y220018*
X329928Y219877*
X329962Y219784*
X330030Y219690*
X330098Y219643*
X330235*
X330303Y219690*
X330371Y219784*
X330405Y219877*
X330439Y220018*
Y220252*
X330405Y220393*
X330371Y220487*
X330303Y220581*
X330235Y220627*
X330098*
X330201Y219831D02*
X330405Y219549D01*
X331189Y220627D02*
X330848D01*
X330814Y220206*
X330848Y220252*
X330951Y220299*
X331053*
X331155Y220252*
X331223Y220159*
X331257Y220018*
X331223Y219924*
X331189Y219784*
X331121Y219690*
X331019Y219643*
X330916*
X330814Y219690*
X330780Y219737*
X330746Y219831*
X144891Y287621D02*
X144857Y287715D01*
X144788Y287809*
X144720Y287856*
X144584*
X144516Y287809*
X144447Y287715*
X144413Y287621*
X144379Y287481*
Y287246*
X144413Y287106*
X144447Y287012*
X144516Y286918*
X144584Y286871*
X144720*
X144788Y286918*
X144857Y287012*
X144891Y287106*
X145197Y287668D02*
X145266Y287715D01*
X145368Y287856*
Y286871*
X146118Y287528D02*
X146084Y287387D01*
X146016Y287293*
X145913Y287246*
X145879*
X145777Y287293*
X145709Y287387*
X145675Y287528*
Y287575*
X145709Y287715*
X145777Y287809*
X145879Y287856*
X145913*
X146016Y287809*
X146084Y287715*
X146118Y287528*
Y287293*
X146084Y287059*
X146016Y286918*
X145913Y286871*
X145845*
X145743Y286918*
X145709Y287012*
X330194Y231228D02*
X330160Y231321D01*
X330092Y231415*
X330023Y231462*
X329887*
X329819Y231415*
X329751Y231321*
X329717Y231228*
X329682Y231087*
Y230853*
X329717Y230712*
X329751Y230618*
X329819Y230525*
X329887Y230478*
X330023*
X330092Y230525*
X330160Y230618*
X330194Y230712*
X330501Y231275D02*
X330569Y231321D01*
X330671Y231462*
Y230478*
X331148Y231462D02*
X331046Y231415D01*
X331012Y231321*
Y231228*
X331046Y231134*
X331114Y231087*
X331251Y231040*
X331353Y230993*
X331421Y230900*
X331455Y230806*
Y230665*
X331421Y230571*
X331387Y230525*
X331285Y230478*
X331148*
X331046Y230525*
X331012Y230571*
X330978Y230665*
Y230806*
X331012Y230900*
X331080Y230993*
X331182Y231040*
X331319Y231087*
X331387Y231134*
X331421Y231228*
Y231321*
X331387Y231415*
X331285Y231462*
X331148*
X329682Y250950D02*
Y249966D01*
Y250950D02*
X329989D01*
X330092Y250903*
X330126Y250857*
X330160Y250763*
Y250669*
X330126Y250575*
X330092Y250528*
X329989Y250482*
X329682*
X329921D02*
X330160Y249966D01*
X330467Y250763D02*
X330535Y250810D01*
X330637Y250950*
Y249966*
X330978Y250716D02*
Y250763D01*
X331012Y250857*
X331046Y250903*
X331114Y250950*
X331251*
X331319Y250903*
X331353Y250857*
X331387Y250763*
Y250669*
X331353Y250575*
X331285Y250435*
X330944Y249966*
X331421*
X329965Y242297D02*
Y241312D01*
Y242297D02*
X330271D01*
X330374Y242250*
X330408Y242203*
X330442Y242109*
Y242015*
X330408Y241922*
X330374Y241875*
X330271Y241828*
X329965*
X330203D02*
X330442Y241312D01*
X330749Y242109D02*
X330817Y242156D01*
X330919Y242297*
Y241312*
X331294Y242297D02*
X331669D01*
X331465Y241922*
X331567*
X331635Y241875*
X331669Y241828*
X331703Y241687*
Y241594*
X331669Y241453*
X331601Y241359*
X331499Y241312*
X331396*
X331294Y241359*
X331260Y241406*
X331226Y241500*
X356130Y246659D02*
X356062Y246612D01*
X355993Y246518*
X355959Y246425*
X355925Y246284*
Y246050*
X355959Y245909*
X355993Y245815*
X356062Y245721*
X356130Y245675*
X356266*
X356334Y245721*
X356402Y245815*
X356437Y245909*
X356471Y246050*
Y246284*
X356437Y246425*
X356402Y246518*
X356334Y246612*
X356266Y246659*
X356130*
X356232Y245862D02*
X356437Y245581D01*
X357255Y246659D02*
X356914Y245675D01*
X356777Y246659D02*
X357255D01*
X144960Y298456D02*
X144926Y298550D01*
X144858Y298644*
X144790Y298690*
X144653*
X144585Y298644*
X144517Y298550*
X144483Y298456*
X144449Y298315*
Y298081*
X144483Y297940*
X144517Y297847*
X144585Y297753*
X144653Y297706*
X144790*
X144858Y297753*
X144926Y297847*
X144960Y297940*
X145301Y298456D02*
Y298503D01*
X145335Y298597*
X145369Y298644*
X145437Y298690*
X145574*
X145642Y298644*
X145676Y298597*
X145710Y298503*
Y298409*
X145676Y298315*
X145608Y298175*
X145267Y297706*
X145744*
X146256Y298690D02*
X146153Y298644D01*
X146085Y298503*
X146051Y298269*
Y298128*
X146085Y297894*
X146153Y297753*
X146256Y297706*
X146324*
X146426Y297753*
X146494Y297894*
X146528Y298128*
Y298269*
X146494Y298503*
X146426Y298644*
X146324Y298690*
X146256*
X340579Y281539D02*
Y280555D01*
X340988*
X341295Y281352D02*
X341363Y281399D01*
X341465Y281539*
Y280555*
X135392Y226695D02*
X135358Y226789D01*
X135290Y226882*
X135221Y226929*
X135085*
X135017Y226882*
X134949Y226789*
X134915Y226695*
X134881Y226554*
Y226320*
X134915Y226179*
X134949Y226086*
X135017Y225992*
X135085Y225945*
X135221*
X135290Y225992*
X135358Y226086*
X135392Y226179*
X135733Y226695D02*
Y226742D01*
X135767Y226836*
X135801Y226882*
X135869Y226929*
X136006*
X136074Y226882*
X136108Y226836*
X136142Y226742*
Y226648*
X136108Y226554*
X136040Y226414*
X135699Y225945*
X136176*
X136483Y226742D02*
X136551Y226789D01*
X136653Y226929*
Y225945*
X134900Y243720D02*
X134866Y243814D01*
X134798Y243907*
X134729Y243954*
X134593*
X134525Y243907*
X134457Y243814*
X134423Y243720*
X134388Y243579*
Y243345*
X134423Y243204*
X134457Y243110*
X134525Y243017*
X134593Y242970*
X134729*
X134798Y243017*
X134866Y243110*
X134900Y243204*
X135241Y243720D02*
Y243767D01*
X135275Y243860*
X135309Y243907*
X135377Y243954*
X135513*
X135582Y243907*
X135616Y243860*
X135650Y243767*
Y243673*
X135616Y243579*
X135548Y243439*
X135207Y242970*
X135684*
X136025Y243720D02*
Y243767D01*
X136059Y243860*
X136093Y243907*
X136161Y243954*
X136298*
X136366Y243907*
X136400Y243860*
X136434Y243767*
Y243673*
X136400Y243579*
X136332Y243439*
X135991Y242970*
X136468*
X118382Y234131D02*
X119085D01*
X119226Y234165*
X119319Y234234*
X119366Y234336*
Y234404*
X119319Y234506*
X119226Y234574*
X119085Y234609*
X118382*
Y235359D02*
Y235018D01*
X118804Y234984*
X118757Y235018*
X118710Y235120*
Y235222*
X118757Y235324*
X118851Y235393*
X118991Y235427*
X119085Y235393*
X119226Y235359*
X119319Y235290*
X119366Y235188*
Y235086*
X119319Y234984*
X119272Y234949*
X119179Y234915*
X184972Y240929D02*
Y240226D01*
X185007Y240086*
X185075Y239992*
X185177Y239945*
X185245*
X185347Y239992*
X185416Y240086*
X185450Y240226*
Y240929*
X186166Y240789D02*
X186132Y240882D01*
X186029Y240929*
X185961*
X185859Y240882*
X185791Y240742*
X185757Y240507*
Y240273*
X185791Y240086*
X185859Y239992*
X185961Y239945*
X185995*
X186097Y239992*
X186166Y240086*
X186200Y240226*
Y240273*
X186166Y240414*
X186097Y240507*
X185995Y240554*
X185961*
X185859Y240507*
X185791Y240414*
X185757Y240273*
X261298Y291839D02*
Y291089D01*
X261264Y290948*
X261229Y290901*
X261161Y290854*
X261093*
X261025Y290901*
X260991Y290948*
X260957Y291089*
Y291182*
X261639Y291604D02*
Y291651D01*
X261673Y291745*
X261707Y291792*
X261775Y291839*
X261911*
X261979Y291792*
X262014Y291745*
X262048Y291651*
Y291557*
X262014Y291464*
X261945Y291323*
X261604Y290854*
X262082*
X262004Y120345D02*
Y119595D01*
X261970Y119455*
X261935Y119408*
X261867Y119361*
X261799*
X261731Y119408*
X261697Y119455*
X261663Y119595*
Y119689*
X262379Y120345D02*
X262754D01*
X262549Y119970*
X262651*
X262720Y119923*
X262754Y119877*
X262788Y119736*
Y119642*
X262754Y119502*
X262685Y119408*
X262583Y119361*
X262481*
X262379Y119408*
X262345Y119455*
X262310Y119548*
G54D75*
X259505Y207013D02*
G03X259505I-1000J0D01*
G01X130255Y299517D02*
Y270777D01*
X94034*
Y299517*
X130255*
X127446Y198961D02*
Y159591D01*
X108942*
Y198961*
X127446*
X211747Y303803D02*
X311747D01*
Y293803*
X211747*
Y303803*
Y116409D02*
X311747D01*
Y106409*
X211747*
Y116409*
G74*
X0Y0D02*
M02*
